<?xml version="1.0" encoding="UTF-8" standalone="no"?>
<!DOCTYPE svg PUBLIC "-//W3C//DTD SVG 1.1//EN"
 "http://www.w3.org/Graphics/SVG/1.1/DTD/svg11.dtd">
<!-- Generated by graphviz version 2.43.0 (0)
 -->
<!-- Title: MurdocArchitecture Pages: 1 -->
<svg width="2057pt" height="812pt"
 viewBox="0.00 0.00 2057.40 812.40" xmlns="http://www.w3.org/2000/svg" xmlns:xlink="http://www.w3.org/1999/xlink">
<g id="graph0" class="graph" transform="scale(1 1) rotate(0) translate(25.2 787.2)">
<title>MurdocArchitecture</title>
<polygon fill="white" stroke="transparent" points="-25.2,25.2 -25.2,-787.2 2032.2,-787.2 2032.2,25.2 -25.2,25.2"/>
<g id="clust1" class="cluster">
<title>cluster_clients</title>
<path fill="white" stroke="#bfdbfe" stroke-width="1.4" d="M681,-569C681,-569 1055,-569 1055,-569 1061,-569 1067,-575 1067,-581 1067,-581 1067,-742 1067,-742 1067,-748 1061,-754 1055,-754 1055,-754 681,-754 681,-754 675,-754 669,-748 669,-742 669,-742 669,-581 669,-581 669,-575 675,-569 681,-569"/>
<text text-anchor="middle" x="868" y="-738.8" font-family="Inter" font-size="14.00">Client integration paths</text>
</g>
<g id="clust2" class="cluster">
<title>cluster_gateway</title>
<path fill="white" stroke="#99f6e4" stroke-width="1.4" d="M572,-337C572,-337 1085,-337 1085,-337 1091,-337 1097,-343 1097,-349 1097,-349 1097,-522 1097,-522 1097,-528 1091,-534 1085,-534 1085,-534 572,-534 572,-534 566,-534 560,-528 560,-522 560,-522 560,-349 560,-349 560,-343 566,-337 572,-337"/>
<text text-anchor="middle" x="828.5" y="-518.8" font-family="Inter" font-size="14.00">Gateway adapters</text>
</g>
<g id="clust3" class="cluster">
<title>cluster_security</title>
<path fill="white" stroke="#fde68a" stroke-width="1.4" d="M35,-8C35,-8 683,-8 683,-8 689,-8 695,-14 695,-20 695,-20 695,-290 695,-290 695,-296 689,-302 683,-302 683,-302 35,-302 35,-302 29,-302 23,-296 23,-290 23,-290 23,-20 23,-20 23,-14 29,-8 35,-8"/>
<text text-anchor="middle" x="359" y="-286.8" font-family="Inter" font-size="14.00">Security decision pipeline</text>
</g>
<g id="clust4" class="cluster">
<title>cluster_upstream</title>
<path fill="white" stroke="#c4b5fd" stroke-width="1.4" d="M1437,-202C1437,-202 1987,-202 1987,-202 1993,-202 1999,-208 1999,-214 1999,-214 1999,-290 1999,-290 1999,-296 1993,-302 1987,-302 1987,-302 1437,-302 1437,-302 1431,-302 1425,-296 1425,-290 1425,-290 1425,-214 1425,-214 1425,-208 1431,-202 1437,-202"/>
<text text-anchor="middle" x="1712" y="-286.8" font-family="Inter" font-size="14.00">Upstream systems</text>
</g>
<g id="clust5" class="cluster">
<title>cluster_records</title>
<path fill="white" stroke="#bbf7d0" stroke-width="1.4" d="M845,-105C845,-105 1396,-105 1396,-105 1402,-105 1408,-111 1408,-117 1408,-117 1408,-290 1408,-290 1408,-296 1402,-302 1396,-302 1396,-302 845,-302 845,-302 839,-302 833,-296 833,-290 833,-290 833,-117 833,-117 833,-111 839,-105 845,-105"/>
<text text-anchor="middle" x="1120.5" y="-286.8" font-family="Inter" font-size="14.00">Operator and evidence surfaces</text>
</g>
<g id="clust6" class="cluster">
<title>cluster_testing</title>
<path fill="white" stroke="#fecaca" stroke-width="1.4" d="M1144,-337C1144,-337 1326,-337 1326,-337 1332,-337 1338,-343 1338,-349 1338,-349 1338,-522 1338,-522 1338,-528 1332,-534 1326,-534 1326,-534 1144,-534 1144,-534 1138,-534 1132,-528 1132,-522 1132,-522 1132,-349 1132,-349 1132,-343 1138,-337 1144,-337"/>
<text text-anchor="middle" x="1235" y="-518.8" font-family="Inter" font-size="14.00">Validation</text>
</g>
<!-- agent -->
<g id="node1" class="node">
<title>agent</title>
<path fill="#dbeafe" stroke="#334155" stroke-width="1.2" d="M902,-700C902,-700 810,-700 810,-700 804,-700 798,-694 798,-688 798,-688 798,-676 798,-676 798,-670 804,-664 810,-664 810,-664 902,-664 902,-664 908,-664 914,-670 914,-676 914,-676 914,-688 914,-688 914,-694 908,-700 902,-700"/>
<text text-anchor="middle" x="856" y="-678.9" font-family="Inter" font-size="12.00">Agents and apps</text>
</g>
<!-- llm_client -->
<g id="node2" class="node">
<title>llm_client</title>
<path fill="#eff6ff" stroke="#334155" stroke-width="1.2" d="M909,-615C909,-615 803,-615 803,-615 797,-615 791,-609 791,-603 791,-603 791,-589 791,-589 791,-583 797,-577 803,-577 803,-577 909,-577 909,-577 915,-577 921,-583 921,-589 921,-589 921,-603 921,-603 921,-609 915,-615 909,-615"/>
<text text-anchor="middle" x="856" y="-599.4" font-family="Inter" font-size="12.00">OpenAI&#45;compatible</text>
<text text-anchor="middle" x="856" y="-586.4" font-family="Inter" font-size="12.00">LLM client</text>
</g>
<!-- agent&#45;&gt;llm_client -->
<g id="edge1" class="edge">
<title>agent&#45;&gt;llm_client</title>
<path fill="none" stroke="#64748b" stroke-width="1.15" d="M856,-663.6C856,-651.67 856,-635.67 856,-622.34"/>
<polygon fill="#64748b" stroke="#64748b" stroke-width="1.15" points="858.45,-622.25 856,-615.25 853.55,-622.25 858.45,-622.25"/>
</g>
<!-- http_tool -->
<g id="node3" class="node">
<title>http_tool</title>
<path fill="#eff6ff" stroke="#334155" stroke-width="1.2" d="M1046.5,-615C1046.5,-615 965.5,-615 965.5,-615 959.5,-615 953.5,-609 953.5,-603 953.5,-603 953.5,-589 953.5,-589 953.5,-583 959.5,-577 965.5,-577 965.5,-577 1046.5,-577 1046.5,-577 1052.5,-577 1058.5,-583 1058.5,-589 1058.5,-589 1058.5,-603 1058.5,-603 1058.5,-609 1052.5,-615 1046.5,-615"/>
<text text-anchor="middle" x="1006" y="-599.4" font-family="Inter" font-size="12.00">HTTP tool / API</text>
<text text-anchor="middle" x="1006" y="-586.4" font-family="Inter" font-size="12.00">client</text>
</g>
<!-- agent&#45;&gt;http_tool -->
<g id="edge2" class="edge">
<title>agent&#45;&gt;http_tool</title>
<path fill="none" stroke="#64748b" stroke-width="1.15" d="M886.72,-663.8C910.11,-650.7 942.45,-632.59 967.55,-618.53"/>
<polygon fill="#64748b" stroke="#64748b" stroke-width="1.15" points="968.86,-620.61 973.77,-615.05 966.46,-616.33 968.86,-620.61"/>
</g>
<!-- mcp_client -->
<g id="node4" class="node">
<title>mcp_client</title>
<path fill="#eff6ff" stroke="#334155" stroke-width="1.2" d="M746.5,-614C746.5,-614 689.5,-614 689.5,-614 683.5,-614 677.5,-608 677.5,-602 677.5,-602 677.5,-590 677.5,-590 677.5,-584 683.5,-578 689.5,-578 689.5,-578 746.5,-578 746.5,-578 752.5,-578 758.5,-584 758.5,-590 758.5,-590 758.5,-602 758.5,-602 758.5,-608 752.5,-614 746.5,-614"/>
<text text-anchor="middle" x="718" y="-592.9" font-family="Inter" font-size="12.00">MCP client</text>
</g>
<!-- agent&#45;&gt;mcp_client -->
<g id="edge3" class="edge">
<title>agent&#45;&gt;mcp_client</title>
<path fill="none" stroke="#64748b" stroke-width="1.15" d="M827.74,-663.8C805.88,-650.49 775.52,-632.01 752.27,-617.86"/>
<polygon fill="#64748b" stroke="#64748b" stroke-width="1.15" points="753.47,-615.73 746.22,-614.18 750.93,-619.91 753.47,-615.73"/>
</g>
<!-- openai_adapter -->
<g id="node6" class="node">
<title>openai_adapter</title>
<path fill="#ecfeff" stroke="#334155" stroke-width="1.2" d="M915,-479C915,-479 797,-479 797,-479 791,-479 785,-473 785,-467 785,-467 785,-455 785,-455 785,-449 791,-443 797,-443 797,-443 915,-443 915,-443 921,-443 927,-449 927,-455 927,-455 927,-467 927,-467 927,-473 921,-479 915,-479"/>
<text text-anchor="middle" x="856" y="-457.9" font-family="Inter" font-size="12.00">/v1/chat/completions</text>
</g>
<!-- llm_client&#45;&gt;openai_adapter -->
<g id="edge4" class="edge">
<title>llm_client&#45;&gt;openai_adapter</title>
<path fill="none" stroke="#64748b" stroke-width="1.15" d="M856,-576.79C856,-553.35 856,-512.54 856,-486.43"/>
<polygon fill="#64748b" stroke="#64748b" stroke-width="1.15" points="858.45,-486.15 856,-479.15 853.55,-486.15 858.45,-486.15"/>
<text text-anchor="middle" x="881.5" y="-545" font-family="Inter" font-size="10.00">model calls</text>
</g>
<!-- proxy_adapter -->
<g id="node7" class="node">
<title>proxy_adapter</title>
<path fill="#ecfeff" stroke="#334155" stroke-width="1.2" d="M1076.5,-479C1076.5,-479 971.5,-479 971.5,-479 965.5,-479 959.5,-473 959.5,-467 959.5,-467 959.5,-455 959.5,-455 959.5,-449 965.5,-443 971.5,-443 971.5,-443 1076.5,-443 1076.5,-443 1082.5,-443 1088.5,-449 1088.5,-455 1088.5,-455 1088.5,-467 1088.5,-467 1088.5,-473 1082.5,-479 1076.5,-479"/>
<text text-anchor="middle" x="1024" y="-457.9" font-family="Inter" font-size="12.00">/proxy/{route_id}/...</text>
</g>
<!-- http_tool&#45;&gt;proxy_adapter -->
<g id="edge5" class="edge">
<title>http_tool&#45;&gt;proxy_adapter</title>
<path fill="none" stroke="#64748b" stroke-width="1.15" d="M1008.47,-576.79C1011.65,-553.25 1017.21,-512.19 1020.74,-486.09"/>
<polygon fill="#64748b" stroke="#64748b" stroke-width="1.15" points="1023.17,-486.42 1021.68,-479.15 1018.31,-485.76 1023.17,-486.42"/>
<text text-anchor="middle" x="1032" y="-545" font-family="Inter" font-size="10.00">tool calls</text>
</g>
<!-- mcp_adapter -->
<g id="node8" class="node">
<title>mcp_adapter</title>
<path fill="#ecfeff" stroke="#334155" stroke-width="1.2" d="M740.5,-480C740.5,-480 579.5,-480 579.5,-480 573.5,-480 567.5,-474 567.5,-468 567.5,-468 567.5,-454 567.5,-454 567.5,-448 573.5,-442 579.5,-442 579.5,-442 740.5,-442 740.5,-442 746.5,-442 752.5,-448 752.5,-454 752.5,-454 752.5,-468 752.5,-468 752.5,-474 746.5,-480 740.5,-480"/>
<text text-anchor="middle" x="660" y="-464.4" font-family="Inter" font-size="12.00">MCP proxy server</text>
<text text-anchor="middle" x="660" y="-451.4" font-family="Inter" font-size="12.00">murdoc/mcp/proxy_server.py</text>
</g>
<!-- mcp_client&#45;&gt;mcp_adapter -->
<g id="edge6" class="edge">
<title>mcp_client&#45;&gt;mcp_adapter</title>
<path fill="none" stroke="#64748b" stroke-width="1.15" d="M710.54,-577.88C700.48,-554.83 682.51,-513.63 670.93,-487.07"/>
<polygon fill="#64748b" stroke="#64748b" stroke-width="1.15" points="673.04,-485.77 667.99,-480.33 668.55,-487.72 673.04,-485.77"/>
<text text-anchor="middle" x="730" y="-545" font-family="Inter" font-size="10.00">MCP sessions</text>
</g>
<!-- http_gateway -->
<g id="node5" class="node">
<title>http_gateway</title>
<path fill="#ccfbf1" stroke="#334155" stroke-width="1.2" d="M1077,-383C1077,-383 941,-383 941,-383 935,-383 929,-377 929,-371 929,-371 929,-357 929,-357 929,-351 935,-345 941,-345 941,-345 1077,-345 1077,-345 1083,-345 1089,-351 1089,-357 1089,-357 1089,-371 1089,-371 1089,-377 1083,-383 1077,-383"/>
<text text-anchor="middle" x="1009" y="-367.4" font-family="Inter" font-size="12.00">Murdoc HTTP gateway</text>
<text text-anchor="middle" x="1009" y="-354.4" font-family="Inter" font-size="12.00">murdoc/gateway/app.py</text>
</g>
<!-- runtime -->
<g id="node9" class="node">
<title>runtime</title>
<path fill="#0f766e" stroke="#115e59" stroke-width="1.6" d="M539.5,-383C539.5,-383 402.5,-383 402.5,-383 396.5,-383 390.5,-377 390.5,-371 390.5,-371 390.5,-357 390.5,-357 390.5,-351 396.5,-345 402.5,-345 402.5,-345 539.5,-345 539.5,-345 545.5,-345 551.5,-351 551.5,-357 551.5,-357 551.5,-371 551.5,-371 551.5,-377 545.5,-383 539.5,-383"/>
<text text-anchor="middle" x="471" y="-367.4" font-family="Inter" font-size="12.00" fill="white">Shared security runtime</text>
<text text-anchor="middle" x="471" y="-354.4" font-family="Inter" font-size="12.00" fill="white">murdoc/core/runtime.py</text>
</g>
<!-- http_gateway&#45;&gt;runtime -->
<g id="edge9" class="edge">
<title>http_gateway&#45;&gt;runtime</title>
<path fill="none" stroke="#64748b" stroke-width="1.15" d="M947.49,-383.11C904.41,-396.49 854.5,-412 854.5,-412 854.5,-412 763.5,-412 763.5,-412 763.5,-412 596.01,-388.59 559.01,-383.17"/>
<polygon fill="#64748b" stroke="#64748b" stroke-width="1.15" points="559.19,-380.72 551.9,-382.08 558.45,-385.56 559.19,-380.72"/>
<text text-anchor="middle" x="809" y="-410" font-family="Inter" font-size="10.00">normalized request</text>
</g>
<!-- observability -->
<g id="node22" class="node">
<title>observability</title>
<path fill="#dcfce7" stroke="#334155" stroke-width="1.2" d="M1245,-248C1245,-248 1097,-248 1097,-248 1091,-248 1085,-242 1085,-236 1085,-236 1085,-222 1085,-222 1085,-216 1091,-210 1097,-210 1097,-210 1245,-210 1245,-210 1251,-210 1257,-216 1257,-222 1257,-222 1257,-236 1257,-236 1257,-242 1251,-248 1245,-248"/>
<text text-anchor="middle" x="1171" y="-232.4" font-family="Inter" font-size="12.00">Observability</text>
<text text-anchor="middle" x="1171" y="-219.4" font-family="Inter" font-size="12.00">metrics, traces, logs, alerts</text>
</g>
<!-- http_gateway&#45;&gt;observability -->
<g id="edge31" class="edge">
<title>http_gateway&#45;&gt;observability</title>
<path fill="none" stroke="#64748b" stroke-width="1.15" d="M1044.68,-344.94C1067.18,-333.56 1092,-321 1092,-321 1092,-321 1126.8,-280.91 1150.21,-253.95"/>
<polygon fill="#64748b" stroke="#64748b" stroke-width="1.15" points="1152.27,-255.31 1155.01,-248.42 1148.57,-252.1 1152.27,-255.31"/>
<text text-anchor="middle" x="1131" y="-313" font-family="Inter" font-size="10.00">HTTP metrics</text>
</g>
<!-- openai_adapter&#45;&gt;http_gateway -->
<g id="edge7" class="edge">
<title>openai_adapter&#45;&gt;http_gateway</title>
<path fill="none" stroke="#64748b" stroke-width="1.15" d="M883.71,-442.8C909.01,-427.09 946.52,-403.79 973.91,-386.79"/>
<polygon fill="#64748b" stroke="#64748b" stroke-width="1.15" points="975.28,-388.82 979.94,-383.05 972.7,-384.66 975.28,-388.82"/>
</g>
<!-- proxy_adapter&#45;&gt;http_gateway -->
<g id="edge8" class="edge">
<title>proxy_adapter&#45;&gt;http_gateway</title>
<path fill="none" stroke="#64748b" stroke-width="1.15" d="M1021.25,-442.58C1018.95,-427.99 1015.63,-406.98 1013.03,-390.5"/>
<polygon fill="#64748b" stroke="#64748b" stroke-width="1.15" points="1015.4,-389.82 1011.89,-383.29 1010.56,-390.58 1015.4,-389.82"/>
</g>
<!-- mcp_adapter&#45;&gt;runtime -->
<g id="edge10" class="edge">
<title>mcp_adapter&#45;&gt;runtime</title>
<path fill="none" stroke="#64748b" stroke-width="1.15" d="M597.67,-441.94C558.37,-430.56 515,-418 515,-418 515,-418 502.43,-402.86 490.73,-388.76"/>
<polygon fill="#64748b" stroke="#64748b" stroke-width="1.15" points="492.5,-387.06 486.14,-383.24 488.73,-390.19 492.5,-387.06"/>
<text text-anchor="middle" x="567" y="-410" font-family="Inter" font-size="10.00">normalized MCP event</text>
</g>
<!-- lakera -->
<g id="node10" class="node">
<title>lakera</title>
<path fill="#fef3c7" stroke="#334155" stroke-width="1.2" d="M343,-248C343,-248 229,-248 229,-248 223,-248 217,-242 217,-236 217,-236 217,-222 217,-222 217,-216 223,-210 229,-210 229,-210 343,-210 343,-210 349,-210 355,-216 355,-222 355,-222 355,-236 355,-236 355,-242 349,-248 343,-248"/>
<text text-anchor="middle" x="286" y="-232.4" font-family="Inter" font-size="12.00">Lakera Guard</text>
<text text-anchor="middle" x="286" y="-219.4" font-family="Inter" font-size="12.00">prompt attack signal</text>
</g>
<!-- runtime&#45;&gt;lakera -->
<g id="edge13" class="edge">
<title>runtime&#45;&gt;lakera</title>
<path fill="none" stroke="#64748b" stroke-width="1.15" d="M441.27,-344.86C411.79,-326.88 371,-302 371,-302 371,-302 337.84,-273.91 312.94,-252.82"/>
<polygon fill="#64748b" stroke="#64748b" stroke-width="1.15" points="314.37,-250.82 307.45,-248.17 311.21,-254.56 314.37,-250.82"/>
<text text-anchor="middle" x="403.5" y="-313" font-family="Inter" font-size="10.00">1</text>
</g>
<!-- presidio_in -->
<g id="node11" class="node">
<title>presidio_in</title>
<path fill="#fef3c7" stroke="#334155" stroke-width="1.2" d="M513,-248C513,-248 399,-248 399,-248 393,-248 387,-242 387,-236 387,-236 387,-222 387,-222 387,-216 393,-210 399,-210 399,-210 513,-210 513,-210 519,-210 525,-216 525,-222 525,-222 525,-236 525,-236 525,-242 519,-248 513,-248"/>
<text text-anchor="middle" x="456" y="-232.4" font-family="Inter" font-size="12.00">Presidio input</text>
<text text-anchor="middle" x="456" y="-219.4" font-family="Inter" font-size="12.00">PII detect and redact</text>
</g>
<!-- runtime&#45;&gt;presidio_in -->
<g id="edge14" class="edge">
<title>runtime&#45;&gt;presidio_in</title>
<path fill="none" stroke="#64748b" stroke-width="1.15" d="M468.95,-344.79C466.33,-321.64 461.81,-281.55 458.86,-255.4"/>
<polygon fill="#64748b" stroke="#64748b" stroke-width="1.15" points="461.3,-255.1 458.08,-248.42 456.43,-255.65 461.3,-255.1"/>
<text text-anchor="middle" x="469.5" y="-313" font-family="Inter" font-size="10.00">2</text>
</g>
<!-- policy -->
<g id="node12" class="node">
<title>policy</title>
<path fill="#fde68a" stroke="#334155" stroke-width="1.2" d="M448,-151C448,-151 294,-151 294,-151 288,-151 282,-145 282,-139 282,-139 282,-125 282,-125 282,-119 288,-113 294,-113 294,-113 448,-113 448,-113 454,-113 460,-119 460,-125 460,-125 460,-139 460,-139 460,-145 454,-151 448,-151"/>
<text text-anchor="middle" x="371" y="-135.4" font-family="Inter" font-size="12.00">OPA&#45;compatible policy</text>
<text text-anchor="middle" x="371" y="-122.4" font-family="Inter" font-size="12.00">primary enterprise decision</text>
</g>
<!-- runtime&#45;&gt;policy -->
<g id="edge15" class="edge">
<title>runtime&#45;&gt;policy</title>
<path fill="none" stroke="#64748b" stroke-width="1.15" d="M390.35,-352.37C257.7,-334.9 8,-302 8,-302 8,-302 8,-202 8,-202 8,-202 167.19,-171.74 274.73,-151.3"/>
<polygon fill="#64748b" stroke="#64748b" stroke-width="1.15" points="275.32,-153.68 281.74,-149.97 274.4,-148.87 275.32,-153.68"/>
<text text-anchor="middle" x="11.5" y="-226.5" font-family="Inter" font-size="10.00">3</text>
</g>
<!-- semantic -->
<g id="node13" class="node">
<title>semantic</title>
<path fill="#fef3c7" stroke="#334155" stroke-width="1.2" d="M173,-248C173,-248 43,-248 43,-248 37,-248 31,-242 31,-236 31,-236 31,-222 31,-222 31,-216 37,-210 43,-210 43,-210 173,-210 173,-210 179,-210 185,-216 185,-222 185,-222 185,-236 185,-236 185,-242 179,-248 173,-248"/>
<text text-anchor="middle" x="108" y="-232.4" font-family="Inter" font-size="12.00">Semantic guardrails</text>
<text text-anchor="middle" x="108" y="-219.4" font-family="Inter" font-size="12.00">NeMo / configured rails</text>
</g>
<!-- runtime&#45;&gt;semantic -->
<g id="edge16" class="edge">
<title>runtime&#45;&gt;semantic</title>
<path fill="none" stroke="#64748b" stroke-width="1.15" d="M391.09,-344.95C311.47,-326.96 201,-302 201,-302 201,-302 164.41,-273.67 137.13,-252.55"/>
<polygon fill="#64748b" stroke="#64748b" stroke-width="1.15" points="138.5,-250.52 131.47,-248.17 135.5,-254.39 138.5,-250.52"/>
<text text-anchor="middle" x="283.5" y="-313" font-family="Inter" font-size="10.00">4</text>
</g>
<!-- sanitize -->
<g id="node14" class="node">
<title>sanitize</title>
<path fill="#fef3c7" stroke="#334155" stroke-width="1.2" d="M675,-54C675,-54 541,-54 541,-54 535,-54 529,-48 529,-42 529,-42 529,-28 529,-28 529,-22 535,-16 541,-16 541,-16 675,-16 675,-16 681,-16 687,-22 687,-28 687,-28 687,-42 687,-42 687,-48 681,-54 675,-54"/>
<text text-anchor="middle" x="608" y="-38.4" font-family="Inter" font-size="12.00">Context sanitization</text>
<text text-anchor="middle" x="608" y="-25.4" font-family="Inter" font-size="12.00">safe execution envelope</text>
</g>
<!-- runtime&#45;&gt;sanitize -->
<g id="edge17" class="edge">
<title>runtime&#45;&gt;sanitize</title>
<path fill="none" stroke="#64748b" stroke-width="1.15" d="M390.39,-354.7C271.49,-342.46 63,-321 63,-321 63,-321 0,-302 0,-302 0,-302 0,-202 0,-202 0,-202 266,-105 266,-105 266,-105 420.47,-73.84 521.78,-53.39"/>
<polygon fill="#64748b" stroke="#64748b" stroke-width="1.15" points="522.3,-55.79 528.68,-52 521.33,-50.99 522.3,-55.79"/>
<text text-anchor="middle" x="76.5" y="-178" font-family="Inter" font-size="10.00">5</text>
</g>
<!-- ledger -->
<g id="node21" class="node">
<title>ledger</title>
<path fill="#dcfce7" stroke="#334155" stroke-width="1.2" d="M1041,-248C1041,-248 853,-248 853,-248 847,-248 841,-242 841,-236 841,-236 841,-222 841,-222 841,-216 847,-210 853,-210 853,-210 1041,-210 1041,-210 1047,-210 1053,-216 1053,-222 1053,-222 1053,-236 1053,-236 1053,-242 1047,-248 1041,-248"/>
<text text-anchor="middle" x="947" y="-232.4" font-family="Inter" font-size="12.00">Decision ledger</text>
<text text-anchor="middle" x="947" y="-219.4" font-family="Inter" font-size="12.00">verdicts, hashes, versions, latency</text>
</g>
<!-- runtime&#45;&gt;ledger -->
<g id="edge29" class="edge">
<title>runtime&#45;&gt;ledger</title>
<path fill="none" stroke="#64748b" stroke-width="1.15" d="M530.04,-344.94C544.54,-340.51 556,-337 556,-337 556,-337 769,-321 769,-321 769,-321 817,-302 817,-302 817,-302 869.44,-272.96 907.71,-251.76"/>
<polygon fill="#64748b" stroke="#64748b" stroke-width="1.15" points="909.26,-253.7 914.2,-248.17 906.88,-249.42 909.26,-253.7"/>
<text text-anchor="middle" x="830" y="-313" font-family="Inter" font-size="10.00">decision record</text>
</g>
<!-- runtime&#45;&gt;observability -->
<g id="edge30" class="edge">
<title>runtime&#45;&gt;observability</title>
<path fill="none" stroke="#64748b" stroke-width="1.15" d="M530.04,-344.94C544.54,-340.51 556,-337 556,-337 556,-337 873,-321 873,-321 873,-321 905,-310 905,-310 905,-310 1069,-302 1069,-302 1069,-302 1109.47,-273.43 1139.43,-252.29"/>
<polygon fill="#64748b" stroke="#64748b" stroke-width="1.15" points="1140.96,-254.21 1145.26,-248.17 1138.13,-250.2 1140.96,-254.21"/>
<text text-anchor="middle" x="940" y="-313" font-family="Inter" font-size="10.00">security events</text>
</g>
<!-- lakera&#45;&gt;policy -->
<g id="edge18" class="edge">
<title>lakera&#45;&gt;policy</title>
<path fill="none" stroke="#64748b" stroke-width="1.15" d="M302.39,-209.68C315.91,-194.57 335.19,-173.02 349.87,-156.61"/>
<polygon fill="#64748b" stroke="#64748b" stroke-width="1.15" points="351.82,-158.11 354.66,-151.26 348.17,-154.84 351.82,-158.11"/>
<text text-anchor="middle" x="344.5" y="-178" font-family="Inter" font-size="10.00">signal</text>
</g>
<!-- presidio_in&#45;&gt;policy -->
<g id="edge19" class="edge">
<title>presidio_in&#45;&gt;policy</title>
<path fill="none" stroke="#64748b" stroke-width="1.15" d="M439.61,-209.68C426.09,-194.57 406.81,-173.02 392.13,-156.61"/>
<polygon fill="#64748b" stroke="#64748b" stroke-width="1.15" points="393.83,-154.84 387.34,-151.26 390.18,-158.11 393.83,-154.84"/>
<text text-anchor="middle" x="437.5" y="-178" font-family="Inter" font-size="10.00">PII signal</text>
</g>
<!-- policy&#45;&gt;sanitize -->
<g id="edge20" class="edge">
<title>policy&#45;&gt;sanitize</title>
<path fill="none" stroke="#64748b" stroke-width="1.15" d="M416.14,-112.91C456.17,-96.86 514.61,-73.44 556.46,-56.66"/>
<polygon fill="#64748b" stroke="#64748b" stroke-width="1.15" points="557.45,-58.9 563.03,-54.03 555.62,-54.36 557.45,-58.9"/>
<text text-anchor="middle" x="508" y="-81" font-family="Inter" font-size="10.00">allow</text>
</g>
<!-- model_provider -->
<g id="node16" class="node">
<title>model_provider</title>
<path fill="#ede9fe" stroke="#334155" stroke-width="1.2" d="M1583,-248C1583,-248 1445,-248 1445,-248 1439,-248 1433,-242 1433,-236 1433,-236 1433,-222 1433,-222 1433,-216 1439,-210 1445,-210 1445,-210 1583,-210 1583,-210 1589,-210 1595,-216 1595,-222 1595,-222 1595,-236 1595,-236 1595,-242 1589,-248 1583,-248"/>
<text text-anchor="middle" x="1514" y="-232.4" font-family="Inter" font-size="12.00">Model provider</text>
<text text-anchor="middle" x="1514" y="-219.4" font-family="Inter" font-size="12.00">registered LLM upstream</text>
</g>
<!-- sanitize&#45;&gt;model_provider -->
<g id="edge21" class="edge">
<title>sanitize&#45;&gt;model_provider</title>
<path fill="none" stroke="#64748b" stroke-width="1.15" d="M687.32,-42.77C890.9,-60.16 1416,-105 1416,-105 1416,-105 1466.71,-168.64 1495.17,-204.37"/>
<polygon fill="#64748b" stroke="#64748b" stroke-width="1.15" points="1493.26,-205.9 1499.54,-209.85 1497.09,-202.85 1493.26,-205.9"/>
<text text-anchor="middle" x="1476.5" y="-129.5" font-family="Inter" font-size="10.00">LLM mode</text>
</g>
<!-- tool_backend -->
<g id="node17" class="node">
<title>tool_backend</title>
<path fill="#ede9fe" stroke="#334155" stroke-width="1.2" d="M1784.5,-248C1784.5,-248 1639.5,-248 1639.5,-248 1633.5,-248 1627.5,-242 1627.5,-236 1627.5,-236 1627.5,-222 1627.5,-222 1627.5,-216 1633.5,-210 1639.5,-210 1639.5,-210 1784.5,-210 1784.5,-210 1790.5,-210 1796.5,-216 1796.5,-222 1796.5,-222 1796.5,-236 1796.5,-236 1796.5,-242 1790.5,-248 1784.5,-248"/>
<text text-anchor="middle" x="1712" y="-232.4" font-family="Inter" font-size="12.00">Agent / tool / API</text>
<text text-anchor="middle" x="1712" y="-219.4" font-family="Inter" font-size="12.00">registered HTTP upstream</text>
</g>
<!-- sanitize&#45;&gt;tool_backend -->
<g id="edge22" class="edge">
<title>sanitize&#45;&gt;tool_backend</title>
<path fill="none" stroke="#64748b" stroke-width="1.15" d="M687.16,-41.75C845.46,-53.25 1186,-78 1186,-78 1186,-78 1509,-105 1509,-105 1509,-105 1617.53,-170.76 1675.88,-206.11"/>
<polygon fill="#64748b" stroke="#64748b" stroke-width="1.15" points="1674.79,-208.32 1682.05,-209.85 1677.33,-204.13 1674.79,-208.32"/>
<text text-anchor="middle" x="1620.5" y="-129.5" font-family="Inter" font-size="10.00">HTTP tool mode</text>
</g>
<!-- mcp_server -->
<g id="node18" class="node">
<title>mcp_server</title>
<path fill="#ede9fe" stroke="#334155" stroke-width="1.2" d="M1979,-248C1979,-248 1841,-248 1841,-248 1835,-248 1829,-242 1829,-236 1829,-236 1829,-222 1829,-222 1829,-216 1835,-210 1841,-210 1841,-210 1979,-210 1979,-210 1985,-210 1991,-216 1991,-222 1991,-222 1991,-236 1991,-236 1991,-242 1985,-248 1979,-248"/>
<text text-anchor="middle" x="1910" y="-232.4" font-family="Inter" font-size="12.00">Downstream MCP server</text>
<text text-anchor="middle" x="1910" y="-219.4" font-family="Inter" font-size="12.00">stdio command</text>
</g>
<!-- sanitize&#45;&gt;mcp_server -->
<g id="edge23" class="edge">
<title>sanitize&#45;&gt;mcp_server</title>
<path fill="none" stroke="#64748b" stroke-width="1.15" d="M687.13,-40.98C863.81,-52.11 1275,-78 1275,-78 1275,-78 1666,-105 1666,-105 1666,-105 1797.84,-171.46 1867.7,-206.68"/>
<polygon fill="#64748b" stroke="#64748b" stroke-width="1.15" points="1866.91,-209.02 1874.26,-209.98 1869.11,-204.64 1866.91,-209.02"/>
<text text-anchor="middle" x="1780.5" y="-129.5" font-family="Inter" font-size="10.00">MCP mode</text>
</g>
<!-- presidio_out -->
<g id="node15" class="node">
<title>presidio_out</title>
<path fill="#fef3c7" stroke="#334155" stroke-width="1.2" d="M675,-248C675,-248 569,-248 569,-248 563,-248 557,-242 557,-236 557,-236 557,-222 557,-222 557,-216 563,-210 569,-210 569,-210 675,-210 675,-210 681,-210 687,-216 687,-222 687,-222 687,-236 687,-236 687,-242 681,-248 675,-248"/>
<text text-anchor="middle" x="622" y="-232.4" font-family="Inter" font-size="12.00">Presidio output</text>
<text text-anchor="middle" x="622" y="-219.4" font-family="Inter" font-size="12.00">response redaction</text>
</g>
<!-- presidio_out&#45;&gt;http_gateway -->
<g id="edge27" class="edge">
<title>presidio_out&#45;&gt;http_gateway</title>
<path fill="none" stroke="#64748b" stroke-width="1.15" d="M644.46,-248.17C670.82,-269.5 711,-302 711,-302 711,-302 983,-310 983,-310 983,-310 990.04,-324.35 996.79,-338.11"/>
<polygon fill="#64748b" stroke="#64748b" stroke-width="1.15" points="994.77,-339.55 1000.05,-344.76 999.17,-337.4 994.77,-339.55"/>
<text text-anchor="middle" x="1019.5" y="-313" font-family="Inter" font-size="10.00">safe response</text>
</g>
<!-- presidio_out&#45;&gt;mcp_adapter -->
<g id="edge28" class="edge">
<title>presidio_out&#45;&gt;mcp_adapter</title>
<path fill="none" stroke="#64748b" stroke-width="1.15" d="M625.02,-248.28C631.78,-289.22 648.15,-388.3 655.86,-434.93"/>
<polygon fill="#64748b" stroke="#64748b" stroke-width="1.15" points="653.46,-435.45 657.02,-441.95 658.29,-434.65 653.46,-435.45"/>
<text text-anchor="middle" x="683" y="-361.5" font-family="Inter" font-size="10.00">safe MCP result</text>
</g>
<!-- model_provider&#45;&gt;presidio_out -->
<g id="edge24" class="edge">
<title>model_provider&#45;&gt;presidio_out</title>
<path fill="none" stroke="#64748b" stroke-width="1.15" d="M1489.82,-248.19C1456.36,-274.76 1400,-319.5 1400,-319.5 1400,-319.5 727,-319.5 727,-319.5 727,-319.5 680.99,-279.85 649.89,-253.04"/>
<polygon fill="#64748b" stroke="#64748b" stroke-width="1.15" points="651.17,-250.91 644.27,-248.19 647.97,-254.62 651.17,-250.91"/>
</g>
<!-- tool_backend&#45;&gt;presidio_out -->
<g id="edge25" class="edge">
<title>tool_backend&#45;&gt;presidio_out</title>
<path fill="none" stroke="#64748b" stroke-width="1.15" d="M1687.19,-248.19C1652.84,-274.76 1595,-319.5 1595,-319.5 1595,-319.5 727,-319.5 727,-319.5 727,-319.5 680.99,-279.85 649.89,-253.04"/>
<polygon fill="#64748b" stroke="#64748b" stroke-width="1.15" points="651.17,-250.91 644.27,-248.19 647.97,-254.62 651.17,-250.91"/>
</g>
<!-- mcp_server&#45;&gt;presidio_out -->
<g id="edge26" class="edge">
<title>mcp_server&#45;&gt;presidio_out</title>
<path fill="none" stroke="#64748b" stroke-width="1.15" d="M1886.04,-248.19C1852.87,-274.76 1797,-319.5 1797,-319.5 1797,-319.5 727,-319.5 727,-319.5 727,-319.5 680.99,-279.85 649.89,-253.04"/>
<polygon fill="#64748b" stroke="#64748b" stroke-width="1.15" points="651.17,-250.91 644.27,-248.19 647.97,-254.62 651.17,-250.91"/>
</g>
<!-- console -->
<g id="node19" class="node">
<title>console</title>
<path fill="#dcfce7" stroke="#334155" stroke-width="1.2" d="M1388.5,-248C1388.5,-248 1301.5,-248 1301.5,-248 1295.5,-248 1289.5,-242 1289.5,-236 1289.5,-236 1289.5,-222 1289.5,-222 1289.5,-216 1295.5,-210 1301.5,-210 1301.5,-210 1388.5,-210 1388.5,-210 1394.5,-210 1400.5,-216 1400.5,-222 1400.5,-222 1400.5,-236 1400.5,-236 1400.5,-242 1394.5,-248 1388.5,-248"/>
<text text-anchor="middle" x="1345" y="-232.4" font-family="Inter" font-size="12.00">React console</text>
<text text-anchor="middle" x="1345" y="-219.4" font-family="Inter" font-size="12.00">control plane UI</text>
</g>
<!-- control -->
<g id="node20" class="node">
<title>control</title>
<path fill="#dcfce7" stroke="#334155" stroke-width="1.2" d="M1203.5,-151C1203.5,-151 1020.5,-151 1020.5,-151 1014.5,-151 1008.5,-145 1008.5,-139 1008.5,-139 1008.5,-125 1008.5,-125 1008.5,-119 1014.5,-113 1020.5,-113 1020.5,-113 1203.5,-113 1203.5,-113 1209.5,-113 1215.5,-119 1215.5,-125 1215.5,-125 1215.5,-139 1215.5,-139 1215.5,-145 1209.5,-151 1203.5,-151"/>
<text text-anchor="middle" x="1112" y="-135.4" font-family="Inter" font-size="12.00">Control plane</text>
<text text-anchor="middle" x="1112" y="-122.4" font-family="Inter" font-size="12.00">routes, profiles, runtime settings</text>
</g>
<!-- console&#45;&gt;control -->
<g id="edge11" class="edge">
<title>console&#45;&gt;control</title>
<path fill="none" stroke="#64748b" stroke-width="1.15" d="M1300.63,-209.91C1261.35,-193.89 1204.05,-170.53 1162.92,-153.76"/>
<polygon fill="#64748b" stroke="#64748b" stroke-width="1.15" points="1163.62,-151.4 1156.21,-151.03 1161.77,-155.94 1163.62,-151.4"/>
<text text-anchor="middle" x="1276" y="-178" font-family="Inter" font-size="10.00">operator changes</text>
</g>
<!-- control&#45;&gt;runtime -->
<g id="edge12" class="edge">
<title>control&#45;&gt;runtime</title>
<path fill="none" stroke="#64748b" stroke-width="1.15" d="M1021.81,-151.04C919.59,-171.48 767,-202 767,-202 767,-202 703,-302 703,-302 703,-302 556,-337 556,-337 556,-337 547.99,-339.45 536.89,-342.85"/>
<polygon fill="#64748b" stroke="#64748b" stroke-width="1.15" points="536.01,-340.55 530.04,-344.94 537.45,-345.24 536.01,-340.55"/>
<text text-anchor="middle" x="796" y="-226.5" font-family="Inter" font-size="10.00">route profile</text>
</g>
<!-- attack_lab -->
<g id="node23" class="node">
<title>attack_lab</title>
<path fill="#fee2e2" stroke="#334155" stroke-width="1.2" d="M1317.5,-480C1317.5,-480 1152.5,-480 1152.5,-480 1146.5,-480 1140.5,-474 1140.5,-468 1140.5,-468 1140.5,-454 1140.5,-454 1140.5,-448 1146.5,-442 1152.5,-442 1152.5,-442 1317.5,-442 1317.5,-442 1323.5,-442 1329.5,-448 1329.5,-454 1329.5,-454 1329.5,-468 1329.5,-468 1329.5,-474 1323.5,-480 1317.5,-480"/>
<text text-anchor="middle" x="1235" y="-464.4" font-family="Inter" font-size="12.00">Attack lab</text>
<text text-anchor="middle" x="1235" y="-451.4" font-family="Inter" font-size="12.00">corpus and stateful scenarios</text>
</g>
<!-- attack_lab&#45;&gt;http_gateway -->
<g id="edge32" class="edge">
<title>attack_lab&#45;&gt;http_gateway</title>
<path fill="none" stroke="#64748b" stroke-width="1.15" d="M1191.96,-441.91C1153.94,-425.93 1098.51,-402.63 1058.64,-385.87"/>
<polygon fill="#64748b" stroke="#64748b" stroke-width="1.15" points="1059.28,-383.48 1051.88,-383.03 1057.38,-388 1059.28,-383.48"/>
<text text-anchor="middle" x="1157" y="-410" font-family="Inter" font-size="10.00">guarded run</text>
</g>
<!-- raw_target -->
<g id="node24" class="node">
<title>raw_target</title>
<path fill="#fee2e2" stroke="#334155" stroke-width="1.2" d="M1312.5,-383C1312.5,-383 1181.5,-383 1181.5,-383 1175.5,-383 1169.5,-377 1169.5,-371 1169.5,-371 1169.5,-357 1169.5,-357 1169.5,-351 1175.5,-345 1181.5,-345 1181.5,-345 1312.5,-345 1312.5,-345 1318.5,-345 1324.5,-351 1324.5,-357 1324.5,-357 1324.5,-371 1324.5,-371 1324.5,-377 1318.5,-383 1312.5,-383"/>
<text text-anchor="middle" x="1247" y="-367.4" font-family="Inter" font-size="12.00">Raw target</text>
<text text-anchor="middle" x="1247" y="-354.4" font-family="Inter" font-size="12.00">unguarded comparison</text>
</g>
<!-- attack_lab&#45;&gt;raw_target -->
<g id="edge33" class="edge">
<title>attack_lab&#45;&gt;raw_target</title>
<path fill="none" stroke="#64748b" stroke-width="1.15" d="M1237.31,-441.68C1239.16,-427.09 1241.76,-406.51 1243.8,-390.34"/>
<polygon fill="#64748b" stroke="#64748b" stroke-width="1.15" points="1246.25,-390.51 1244.69,-383.26 1241.39,-389.9 1246.25,-390.51"/>
<text text-anchor="middle" x="1270" y="-410" font-family="Inter" font-size="10.00">raw baseline</text>
</g>
<!-- raw_target&#45;&gt;tool_backend -->
<g id="edge34" class="edge">
<title>raw_target&#45;&gt;tool_backend</title>
<path fill="none" stroke="#64748b" stroke-width="1.15" d="M1324.64,-349.99C1431.54,-332.07 1611,-302 1611,-302 1611,-302 1651.07,-273.43 1680.73,-252.29"/>
<polygon fill="#64748b" stroke="#64748b" stroke-width="1.15" points="1682.24,-254.23 1686.51,-248.17 1679.39,-250.24 1682.24,-254.23"/>
</g>
</g>
</svg>
