<?xml version="1.0" encoding="UTF-8" standalone="no"?>
<!DOCTYPE svg PUBLIC "-//W3C//DTD SVG 1.1//EN"
 "http://www.w3.org/Graphics/SVG/1.1/DTD/svg11.dtd">
<!-- Generated by graphviz version 2.43.0 (0)
 -->
<!-- Title: MurdocFlow Pages: 1 -->
<svg width="3254pt" height="1101pt"
 viewBox="0.00 0.00 3254.00 1100.75" xmlns="http://www.w3.org/2000/svg" xmlns:xlink="http://www.w3.org/1999/xlink">
<g id="graph0" class="graph" transform="scale(1 1) rotate(0) translate(4 1096.75)">
<title>MurdocFlow</title>
<polygon fill="white" stroke="transparent" points="-4,4 -4,-1096.75 3250,-1096.75 3250,4 -4,4"/>
<g id="clust1" class="cluster">
<title>cluster_tools</title>
<path fill="none" stroke="#cbd5e1" d="M2883,-67.75C2883,-67.75 3226,-67.75 3226,-67.75 3232,-67.75 3238,-73.75 3238,-79.75 3238,-79.75 3238,-418.75 3238,-418.75 3238,-424.75 3232,-430.75 3226,-430.75 3226,-430.75 2883,-430.75 2883,-430.75 2877,-430.75 2871,-424.75 2871,-418.75 2871,-418.75 2871,-79.75 2871,-79.75 2871,-73.75 2877,-67.75 2883,-67.75"/>
<text text-anchor="middle" x="3054.5" y="-415.55" font-family="Helvetica,sans-Serif" font-size="14.00">Target tools and multi&#45;agent audit surfaces</text>
</g>
<g id="clust2" class="cluster">
<title>cluster_testing</title>
<path fill="none" stroke="#cbd5e1" d="M262,-235.75C262,-235.75 777,-235.75 777,-235.75 783,-235.75 789,-241.75 789,-247.75 789,-247.75 789,-370.75 789,-370.75 789,-376.75 783,-382.75 777,-382.75 777,-382.75 262,-382.75 262,-382.75 256,-382.75 250,-376.75 250,-370.75 250,-370.75 250,-247.75 250,-247.75 250,-241.75 256,-235.75 262,-235.75"/>
<text text-anchor="middle" x="519.5" y="-367.55" font-family="Helvetica,sans-Serif" font-size="14.00">Adversarial testing path</text>
</g>
<!-- user -->
<g id="node1" class="node">
<title>user</title>
<path fill="#dbeafe" stroke="#475569" d="M104,-914.75C104,-914.75 12,-914.75 12,-914.75 6,-914.75 0,-908.75 0,-902.75 0,-902.75 0,-890.75 0,-890.75 0,-884.75 6,-878.75 12,-878.75 12,-878.75 104,-878.75 104,-878.75 110,-878.75 116,-884.75 116,-890.75 116,-890.75 116,-902.75 116,-902.75 116,-908.75 110,-914.75 104,-914.75"/>
<text text-anchor="middle" x="58" y="-893.95" font-family="Helvetica,sans-Serif" font-size="11.00">Agent / App Client</text>
</g>
<!-- openai -->
<g id="node4" class="node">
<title>openai</title>
<path fill="#dbeafe" stroke="#475569" d="M440,-801.75C440,-801.75 264,-801.75 264,-801.75 258,-801.75 252,-795.75 252,-789.75 252,-789.75 252,-777.75 252,-777.75 252,-771.75 258,-765.75 264,-765.75 264,-765.75 440,-765.75 440,-765.75 446,-765.75 452,-771.75 452,-777.75 452,-777.75 452,-789.75 452,-789.75 452,-795.75 446,-801.75 440,-801.75"/>
<text text-anchor="middle" x="352" y="-786.95" font-family="Helvetica,sans-Serif" font-size="11.00">OpenAI&#45;Compatible LLM Gateway</text>
<text text-anchor="middle" x="352" y="-774.95" font-family="Helvetica,sans-Serif" font-size="11.00">/v1/chat/completions</text>
</g>
<!-- user&#45;&gt;openai -->
<g id="edge2" class="edge">
<title>user&#45;&gt;openai</title>
<path fill="none" stroke="#64748b" d="M95.86,-878.55C112,-870.84 131.28,-861.98 149,-854.75 193.83,-836.47 245.34,-818.41 285.12,-805.08"/>
<polygon fill="#64748b" stroke="#64748b" points="286.33,-808.36 294.71,-801.88 284.12,-801.72 286.33,-808.36"/>
<text text-anchor="middle" x="184" y="-857.75" font-family="Helvetica,sans-Serif" font-size="10.00">LLM calls</text>
</g>
<!-- httpproxy -->
<g id="node5" class="node">
<title>httpproxy</title>
<path fill="#dbeafe" stroke="#475569" d="M411.5,-873.75C411.5,-873.75 292.5,-873.75 292.5,-873.75 286.5,-873.75 280.5,-867.75 280.5,-861.75 280.5,-861.75 280.5,-849.75 280.5,-849.75 280.5,-843.75 286.5,-837.75 292.5,-837.75 292.5,-837.75 411.5,-837.75 411.5,-837.75 417.5,-837.75 423.5,-843.75 423.5,-849.75 423.5,-849.75 423.5,-861.75 423.5,-861.75 423.5,-867.75 417.5,-873.75 411.5,-873.75"/>
<text text-anchor="middle" x="352" y="-858.95" font-family="Helvetica,sans-Serif" font-size="11.00">HTTP Tool/API Gateway</text>
<text text-anchor="middle" x="352" y="-846.95" font-family="Helvetica,sans-Serif" font-size="11.00">/proxy/{route_id}/...</text>
</g>
<!-- user&#45;&gt;httpproxy -->
<g id="edge3" class="edge">
<title>user&#45;&gt;httpproxy</title>
<path fill="none" stroke="#64748b" d="M116.34,-888.7C160.32,-882.53 221.56,-873.93 270.45,-867.06"/>
<polygon fill="#64748b" stroke="#64748b" points="270.96,-870.53 280.37,-865.67 269.98,-863.6 270.96,-870.53"/>
<text text-anchor="middle" x="184" y="-885.75" font-family="Helvetica,sans-Serif" font-size="10.00">tool/API calls</text>
</g>
<!-- mcp -->
<g id="node6" class="node">
<title>mcp</title>
<path fill="#dbeafe" stroke="#475569" d="M428.5,-945.75C428.5,-945.75 275.5,-945.75 275.5,-945.75 269.5,-945.75 263.5,-939.75 263.5,-933.75 263.5,-933.75 263.5,-921.75 263.5,-921.75 263.5,-915.75 269.5,-909.75 275.5,-909.75 275.5,-909.75 428.5,-909.75 428.5,-909.75 434.5,-909.75 440.5,-915.75 440.5,-921.75 440.5,-921.75 440.5,-933.75 440.5,-933.75 440.5,-939.75 434.5,-945.75 428.5,-945.75"/>
<text text-anchor="middle" x="352" y="-930.95" font-family="Helvetica,sans-Serif" font-size="11.00">MCP Gateway</text>
<text text-anchor="middle" x="352" y="-918.95" font-family="Helvetica,sans-Serif" font-size="11.00">murdoc/mcp/proxy_server.py</text>
</g>
<!-- user&#45;&gt;mcp -->
<g id="edge4" class="edge">
<title>user&#45;&gt;mcp</title>
<path fill="none" stroke="#64748b" d="M116.34,-902.84C155.25,-906.97 207.69,-912.54 253.12,-917.36"/>
<polygon fill="#64748b" stroke="#64748b" points="252.99,-920.87 263.3,-918.44 253.73,-913.91 252.99,-920.87"/>
<text text-anchor="middle" x="184" y="-915.75" font-family="Helvetica,sans-Serif" font-size="10.00">MCP tool calls</text>
</g>
<!-- dashboard -->
<g id="node2" class="node">
<title>dashboard</title>
<path fill="#dbeafe" stroke="#475569" d="M2627,-1092.75C2627,-1092.75 2540,-1092.75 2540,-1092.75 2534,-1092.75 2528,-1086.75 2528,-1080.75 2528,-1080.75 2528,-1068.75 2528,-1068.75 2528,-1062.75 2534,-1056.75 2540,-1056.75 2540,-1056.75 2627,-1056.75 2627,-1056.75 2633,-1056.75 2639,-1062.75 2639,-1068.75 2639,-1068.75 2639,-1080.75 2639,-1080.75 2639,-1086.75 2633,-1092.75 2627,-1092.75"/>
<text text-anchor="middle" x="2583.5" y="-1077.95" font-family="Helvetica,sans-Serif" font-size="11.00">React Dashboard</text>
<text text-anchor="middle" x="2583.5" y="-1065.95" font-family="Helvetica,sans-Serif" font-size="11.00">/ui/dist</text>
</g>
<!-- gateway -->
<g id="node3" class="node">
<title>gateway</title>
<path fill="#bfdbfe" stroke="#475569" d="M771,-801.75C771,-801.75 645,-801.75 645,-801.75 639,-801.75 633,-795.75 633,-789.75 633,-789.75 633,-777.75 633,-777.75 633,-771.75 639,-765.75 645,-765.75 645,-765.75 771,-765.75 771,-765.75 777,-765.75 783,-771.75 783,-777.75 783,-777.75 783,-789.75 783,-789.75 783,-795.75 777,-801.75 771,-801.75"/>
<text text-anchor="middle" x="708" y="-786.95" font-family="Helvetica,sans-Serif" font-size="11.00">Murdoc HTTP Gateway</text>
<text text-anchor="middle" x="708" y="-774.95" font-family="Helvetica,sans-Serif" font-size="11.00">murdoc/gateway/app.py</text>
</g>
<!-- dashboard&#45;&gt;gateway -->
<g id="edge1" class="edge">
<title>dashboard&#45;&gt;gateway</title>
<path fill="none" stroke="#64748b" d="M2527.94,-1075.8C2440.47,-1076.83 2263.61,-1076.21 2115,-1058.75 1606.18,-998.99 1005.92,-857.36 790.78,-804.3"/>
<polygon fill="#64748b" stroke="#64748b" points="791.37,-800.84 780.83,-801.84 789.7,-807.64 791.37,-800.84"/>
<text text-anchor="middle" x="1578.5" y="-989.75" font-family="Helvetica,sans-Serif" font-size="10.00">/api/control&#45;plane</text>
</g>
<!-- runtime -->
<g id="node7" class="node">
<title>runtime</title>
<path fill="#bfdbfe" stroke="#475569" d="M1468,-744.75C1468,-744.75 1343,-744.75 1343,-744.75 1337,-744.75 1331,-738.75 1331,-732.75 1331,-732.75 1331,-720.75 1331,-720.75 1331,-714.75 1337,-708.75 1343,-708.75 1343,-708.75 1468,-708.75 1468,-708.75 1474,-708.75 1480,-714.75 1480,-720.75 1480,-720.75 1480,-732.75 1480,-732.75 1480,-738.75 1474,-744.75 1468,-744.75"/>
<text text-anchor="middle" x="1405.5" y="-729.95" font-family="Helvetica,sans-Serif" font-size="11.00">Murdoc Runtime Core</text>
<text text-anchor="middle" x="1405.5" y="-717.95" font-family="Helvetica,sans-Serif" font-size="11.00">murdoc/core/runtime.py</text>
</g>
<!-- gateway&#45;&gt;runtime -->
<g id="edge8" class="edge">
<title>gateway&#45;&gt;runtime</title>
<path fill="none" stroke="#64748b" d="M783.41,-778.15C895.18,-769.66 1113.02,-752.82 1298,-736.75 1305.4,-736.11 1313.08,-735.43 1320.78,-734.73"/>
<polygon fill="#64748b" stroke="#64748b" points="1321.25,-738.2 1330.89,-733.8 1320.62,-731.23 1321.25,-738.2"/>
<text text-anchor="middle" x="1048" y="-767.75" font-family="Helvetica,sans-Serif" font-size="10.00">adapt HTTP request</text>
</g>
<!-- control -->
<g id="node8" class="node">
<title>control</title>
<path fill="#e0e7ff" stroke="#475569" d="M1142,-643.75C1142,-643.75 954,-643.75 954,-643.75 948,-643.75 942,-637.75 942,-631.75 942,-631.75 942,-619.75 942,-619.75 942,-613.75 948,-607.75 954,-607.75 954,-607.75 1142,-607.75 1142,-607.75 1148,-607.75 1154,-613.75 1154,-619.75 1154,-619.75 1154,-631.75 1154,-631.75 1154,-637.75 1148,-643.75 1142,-643.75"/>
<text text-anchor="middle" x="1048" y="-628.95" font-family="Helvetica,sans-Serif" font-size="11.00">Lightweight Control Plane</text>
<text text-anchor="middle" x="1048" y="-616.95" font-family="Helvetica,sans-Serif" font-size="11.00">route registry + profiles + versions</text>
</g>
<!-- gateway&#45;&gt;control -->
<g id="edge9" class="edge">
<title>gateway&#45;&gt;control</title>
<path fill="none" stroke="#64748b" d="M739.92,-765.62C783.86,-740.31 867.34,-693.88 942,-661.75 953.99,-656.59 966.99,-651.65 979.62,-647.16"/>
<polygon fill="#64748b" stroke="#64748b" points="980.89,-650.42 989.18,-643.82 978.59,-643.81 980.89,-650.42"/>
<text text-anchor="middle" x="862.5" y="-723.75" font-family="Helvetica,sans-Serif" font-size="10.00">management API</text>
</g>
<!-- observability -->
<g id="node21" class="node">
<title>observability</title>
<path fill="#dcfce7" stroke="#475569" d="M1867.5,-535.75C1867.5,-535.75 1695.5,-535.75 1695.5,-535.75 1689.5,-535.75 1683.5,-529.75 1683.5,-523.75 1683.5,-523.75 1683.5,-511.75 1683.5,-511.75 1683.5,-505.75 1689.5,-499.75 1695.5,-499.75 1695.5,-499.75 1867.5,-499.75 1867.5,-499.75 1873.5,-499.75 1879.5,-505.75 1879.5,-511.75 1879.5,-511.75 1879.5,-523.75 1879.5,-523.75 1879.5,-529.75 1873.5,-535.75 1867.5,-535.75"/>
<text text-anchor="middle" x="1781.5" y="-520.95" font-family="Helvetica,sans-Serif" font-size="11.00">Observability</text>
<text text-anchor="middle" x="1781.5" y="-508.95" font-family="Helvetica,sans-Serif" font-size="11.00">Prometheus + OTEL + event log</text>
</g>
<!-- gateway&#45;&gt;observability -->
<g id="edge42" class="edge">
<title>gateway&#45;&gt;observability</title>
<path fill="none" stroke="#64748b" d="M722.78,-765.47C755.34,-724.04 841.88,-623.95 942,-589.75 1193.39,-503.89 1510.65,-503.67 1673.41,-510.76"/>
<polygon fill="#64748b" stroke="#64748b" points="1673.28,-514.26 1683.43,-511.21 1673.6,-507.26 1673.28,-514.26"/>
<text text-anchor="middle" x="1242.5" y="-534.75" font-family="Helvetica,sans-Serif" font-size="10.00">HTTP metrics, traces</text>
</g>
<!-- openai&#45;&gt;gateway -->
<g id="edge5" class="edge">
<title>openai&#45;&gt;gateway</title>
<path fill="none" stroke="#64748b" d="M452.08,-783.75C505.87,-783.75 571.65,-783.75 622.92,-783.75"/>
<polygon fill="#64748b" stroke="#64748b" points="622.97,-787.25 632.97,-783.75 622.97,-780.25 622.97,-787.25"/>
</g>
<!-- httpproxy&#45;&gt;gateway -->
<g id="edge6" class="edge">
<title>httpproxy&#45;&gt;gateway</title>
<path fill="none" stroke="#64748b" d="M423.56,-844.72C473.13,-836.59 540.86,-824.74 600,-811.75 610.34,-809.48 621.19,-806.89 631.84,-804.23"/>
<polygon fill="#64748b" stroke="#64748b" points="632.73,-807.61 641.56,-801.76 631.01,-800.83 632.73,-807.61"/>
</g>
<!-- mcp&#45;&gt;runtime -->
<g id="edge7" class="edge">
<title>mcp&#45;&gt;runtime</title>
<path fill="none" stroke="#64748b" d="M440.65,-919.2C609.12,-901.4 988.84,-854.7 1298,-768.75 1316.98,-763.48 1337.24,-755.99 1354.93,-748.79"/>
<polygon fill="#64748b" stroke="#64748b" points="1356.57,-751.9 1364.47,-744.84 1353.89,-745.43 1356.57,-751.9"/>
<text text-anchor="middle" x="862.5" y="-871.75" font-family="Helvetica,sans-Serif" font-size="10.00">adapt MCP request</text>
</g>
<!-- ledger -->
<g id="node9" class="node">
<title>ledger</title>
<path fill="#e0e7ff" stroke="#475569" d="M1874,-823.75C1874,-823.75 1689,-823.75 1689,-823.75 1683,-823.75 1677,-817.75 1677,-811.75 1677,-811.75 1677,-799.75 1677,-799.75 1677,-793.75 1683,-787.75 1689,-787.75 1689,-787.75 1874,-787.75 1874,-787.75 1880,-787.75 1886,-793.75 1886,-799.75 1886,-799.75 1886,-811.75 1886,-811.75 1886,-817.75 1880,-823.75 1874,-823.75"/>
<text text-anchor="middle" x="1781.5" y="-808.95" font-family="Helvetica,sans-Serif" font-size="11.00">Decision Ledger</text>
<text text-anchor="middle" x="1781.5" y="-796.95" font-family="Helvetica,sans-Serif" font-size="11.00">hashes, verdicts, versions, latency</text>
</g>
<!-- runtime&#45;&gt;ledger -->
<g id="edge41" class="edge">
<title>runtime&#45;&gt;ledger</title>
<path fill="none" stroke="#64748b" d="M1480.08,-743.53C1491.11,-745.98 1502.35,-748.46 1513,-750.75 1568.4,-762.69 1630.39,-775.47 1680.73,-785.7"/>
<polygon fill="#64748b" stroke="#64748b" points="1680.14,-789.16 1690.63,-787.72 1681.53,-782.3 1680.14,-789.16"/>
<text text-anchor="middle" x="1578.5" y="-779.75" font-family="Helvetica,sans-Serif" font-size="10.00">final decision record</text>
</g>
<!-- lakera -->
<g id="node10" class="node">
<title>lakera</title>
<path fill="#fde68a" stroke="#475569" d="M1831.5,-751.75C1831.5,-751.75 1731.5,-751.75 1731.5,-751.75 1725.5,-751.75 1719.5,-745.75 1719.5,-739.75 1719.5,-739.75 1719.5,-727.75 1719.5,-727.75 1719.5,-721.75 1725.5,-715.75 1731.5,-715.75 1731.5,-715.75 1831.5,-715.75 1831.5,-715.75 1837.5,-715.75 1843.5,-721.75 1843.5,-727.75 1843.5,-727.75 1843.5,-739.75 1843.5,-739.75 1843.5,-745.75 1837.5,-751.75 1831.5,-751.75"/>
<text text-anchor="middle" x="1781.5" y="-736.95" font-family="Helvetica,sans-Serif" font-size="11.00">Lakera Guard</text>
<text text-anchor="middle" x="1781.5" y="-724.95" font-family="Helvetica,sans-Serif" font-size="11.00">prompt attack scan</text>
</g>
<!-- runtime&#45;&gt;lakera -->
<g id="edge12" class="edge">
<title>runtime&#45;&gt;lakera</title>
<path fill="none" stroke="#64748b" d="M1480.39,-728.14C1546.77,-729.38 1643.61,-731.19 1709.19,-732.42"/>
<polygon fill="#64748b" stroke="#64748b" points="1709.37,-735.92 1719.43,-732.61 1709.5,-728.92 1709.37,-735.92"/>
<text text-anchor="middle" x="1578.5" y="-733.75" font-family="Helvetica,sans-Serif" font-size="10.00">1. scan_prompt(text)</text>
</g>
<!-- nemo -->
<g id="node11" class="node">
<title>nemo</title>
<path fill="#fde68a" stroke="#475569" d="M1832,-679.75C1832,-679.75 1731,-679.75 1731,-679.75 1725,-679.75 1719,-673.75 1719,-667.75 1719,-667.75 1719,-655.75 1719,-655.75 1719,-649.75 1725,-643.75 1731,-643.75 1731,-643.75 1832,-643.75 1832,-643.75 1838,-643.75 1844,-649.75 1844,-655.75 1844,-655.75 1844,-667.75 1844,-667.75 1844,-673.75 1838,-679.75 1832,-679.75"/>
<text text-anchor="middle" x="1781.5" y="-664.95" font-family="Helvetica,sans-Serif" font-size="11.00">NeMo Guardrails</text>
<text text-anchor="middle" x="1781.5" y="-652.95" font-family="Helvetica,sans-Serif" font-size="11.00">semantic input rails</text>
</g>
<!-- runtime&#45;&gt;nemo -->
<g id="edge13" class="edge">
<title>runtime&#45;&gt;nemo</title>
<path fill="none" stroke="#64748b" d="M1480.39,-713.91C1546.57,-702.41 1643.02,-685.65 1708.59,-674.25"/>
<polygon fill="#64748b" stroke="#64748b" points="1709.58,-677.63 1718.83,-672.47 1708.38,-670.73 1709.58,-677.63"/>
<text text-anchor="middle" x="1578.5" y="-709.75" font-family="Helvetica,sans-Serif" font-size="10.00">2. scan_semantics(text)</text>
</g>
<!-- presidio_in -->
<g id="node12" class="node">
<title>presidio_in</title>
<path fill="#fde68a" stroke="#475569" d="M1829.5,-967.75C1829.5,-967.75 1733.5,-967.75 1733.5,-967.75 1727.5,-967.75 1721.5,-961.75 1721.5,-955.75 1721.5,-955.75 1721.5,-943.75 1721.5,-943.75 1721.5,-937.75 1727.5,-931.75 1733.5,-931.75 1733.5,-931.75 1829.5,-931.75 1829.5,-931.75 1835.5,-931.75 1841.5,-937.75 1841.5,-943.75 1841.5,-943.75 1841.5,-955.75 1841.5,-955.75 1841.5,-961.75 1835.5,-967.75 1829.5,-967.75"/>
<text text-anchor="middle" x="1781.5" y="-952.95" font-family="Helvetica,sans-Serif" font-size="11.00">Presidio Input</text>
<text text-anchor="middle" x="1781.5" y="-940.95" font-family="Helvetica,sans-Serif" font-size="11.00">PII detect + redact</text>
</g>
<!-- runtime&#45;&gt;presidio_in -->
<g id="edge14" class="edge">
<title>runtime&#45;&gt;presidio_in</title>
<path fill="none" stroke="#64748b" d="M1415.99,-745.15C1432.05,-774.48 1467.34,-831.8 1513,-863.75 1572.86,-905.64 1654.23,-927.95 1711.45,-939.25"/>
<polygon fill="#64748b" stroke="#64748b" points="1711.01,-942.73 1721.49,-941.17 1712.33,-935.86 1711.01,-942.73"/>
<text text-anchor="middle" x="1578.5" y="-923.75" font-family="Helvetica,sans-Serif" font-size="10.00">3. scan/redact input</text>
</g>
<!-- policy -->
<g id="node13" class="node">
<title>policy</title>
<path fill="#fde68a" stroke="#475569" d="M1870,-895.75C1870,-895.75 1693,-895.75 1693,-895.75 1687,-895.75 1681,-889.75 1681,-883.75 1681,-883.75 1681,-871.75 1681,-871.75 1681,-865.75 1687,-859.75 1693,-859.75 1693,-859.75 1870,-859.75 1870,-859.75 1876,-859.75 1882,-865.75 1882,-871.75 1882,-871.75 1882,-883.75 1882,-883.75 1882,-889.75 1876,-895.75 1870,-895.75"/>
<text text-anchor="middle" x="1781.5" y="-880.95" font-family="Helvetica,sans-Serif" font-size="11.00">OPA&#45;compatible Policy Engine</text>
<text text-anchor="middle" x="1781.5" y="-868.95" font-family="Helvetica,sans-Serif" font-size="11.00">murdoc/security/policy_engine.py</text>
</g>
<!-- runtime&#45;&gt;policy -->
<g id="edge15" class="edge">
<title>runtime&#45;&gt;policy</title>
<path fill="none" stroke="#64748b" d="M1429.87,-744.97C1450.71,-760.49 1482.54,-782.5 1513,-796.75 1569.58,-823.23 1636.9,-843.57 1689.85,-857.24"/>
<polygon fill="#64748b" stroke="#64748b" points="1689.01,-860.63 1699.57,-859.71 1690.74,-853.85 1689.01,-860.63"/>
<text text-anchor="middle" x="1578.5" y="-846.75" font-family="Helvetica,sans-Serif" font-size="10.00">4. build signals + evaluate</text>
</g>
<!-- presidio_out -->
<g id="node19" class="node">
<title>presidio_out</title>
<path fill="#fde68a" stroke="#475569" d="M1829.5,-607.75C1829.5,-607.75 1733.5,-607.75 1733.5,-607.75 1727.5,-607.75 1721.5,-601.75 1721.5,-595.75 1721.5,-595.75 1721.5,-583.75 1721.5,-583.75 1721.5,-577.75 1727.5,-571.75 1733.5,-571.75 1733.5,-571.75 1829.5,-571.75 1829.5,-571.75 1835.5,-571.75 1841.5,-577.75 1841.5,-583.75 1841.5,-583.75 1841.5,-595.75 1841.5,-595.75 1841.5,-601.75 1835.5,-607.75 1829.5,-607.75"/>
<text text-anchor="middle" x="1781.5" y="-592.95" font-family="Helvetica,sans-Serif" font-size="11.00">Presidio Output</text>
<text text-anchor="middle" x="1781.5" y="-580.95" font-family="Helvetica,sans-Serif" font-size="11.00">PII detect + redact</text>
</g>
<!-- runtime&#45;&gt;presidio_out -->
<g id="edge36" class="edge">
<title>runtime&#45;&gt;presidio_out</title>
<path fill="none" stroke="#64748b" d="M1434.02,-708.5C1454.98,-695.22 1484.92,-677.58 1513,-665.75 1578.24,-638.29 1656.5,-617.35 1711.46,-604.48"/>
<polygon fill="#64748b" stroke="#64748b" points="1712.49,-607.83 1721.45,-602.17 1710.91,-601.01 1712.49,-607.83"/>
<text text-anchor="middle" x="1578.5" y="-668.75" font-family="Helvetica,sans-Serif" font-size="10.00">5. scan/redact output</text>
</g>
<!-- runtime&#45;&gt;observability -->
<g id="edge40" class="edge">
<title>runtime&#45;&gt;observability</title>
<path fill="none" stroke="#64748b" d="M1417.21,-708.64C1434.16,-681.49 1469.73,-630.39 1513,-601.75 1561.14,-569.89 1622.1,-549.52 1673.65,-536.83"/>
<polygon fill="#64748b" stroke="#64748b" points="1674.59,-540.21 1683.5,-534.47 1672.96,-533.4 1674.59,-540.21"/>
<text text-anchor="middle" x="1578.5" y="-604.75" font-family="Helvetica,sans-Serif" font-size="10.00">security events</text>
</g>
<!-- control&#45;&gt;runtime -->
<g id="edge10" class="edge">
<title>control&#45;&gt;runtime</title>
<path fill="none" stroke="#64748b" d="M1128.31,-643.79C1177.49,-655.47 1241.79,-671.66 1298,-688.75 1314.1,-693.65 1331.35,-699.53 1347.19,-705.18"/>
<polygon fill="#64748b" stroke="#64748b" points="1346.25,-708.56 1356.84,-708.66 1348.62,-701.98 1346.25,-708.56"/>
<text text-anchor="middle" x="1242.5" y="-691.75" font-family="Helvetica,sans-Serif" font-size="10.00">local config snapshot</text>
</g>
<!-- sanitize -->
<g id="node14" class="node">
<title>sanitize</title>
<path fill="#fde68a" stroke="#475569" d="M2264.5,-798.75C2264.5,-798.75 2150.5,-798.75 2150.5,-798.75 2144.5,-798.75 2138.5,-792.75 2138.5,-786.75 2138.5,-786.75 2138.5,-774.75 2138.5,-774.75 2138.5,-768.75 2144.5,-762.75 2150.5,-762.75 2150.5,-762.75 2264.5,-762.75 2264.5,-762.75 2270.5,-762.75 2276.5,-768.75 2276.5,-774.75 2276.5,-774.75 2276.5,-786.75 2276.5,-786.75 2276.5,-792.75 2270.5,-798.75 2264.5,-798.75"/>
<text text-anchor="middle" x="2207.5" y="-783.95" font-family="Helvetica,sans-Serif" font-size="11.00">Context Sanitization</text>
<text text-anchor="middle" x="2207.5" y="-771.95" font-family="Helvetica,sans-Serif" font-size="11.00">for backend execution</text>
</g>
<!-- policy&#45;&gt;sanitize -->
<g id="edge16" class="edge">
<title>policy&#45;&gt;sanitize</title>
<path fill="none" stroke="#64748b" d="M1861.26,-859.74C1937.47,-842.3 2052.3,-816.03 2128.32,-798.64"/>
<polygon fill="#64748b" stroke="#64748b" points="2129.35,-801.99 2138.31,-796.35 2127.78,-795.17 2129.35,-801.99"/>
<text text-anchor="middle" x="2000.5" y="-848.75" font-family="Helvetica,sans-Serif" font-size="10.00">allow path</text>
</g>
<!-- backend -->
<g id="node15" class="node">
<title>backend</title>
<path fill="#c7d2fe" stroke="#475569" d="M2651.5,-274.75C2651.5,-274.75 2515.5,-274.75 2515.5,-274.75 2509.5,-274.75 2503.5,-268.75 2503.5,-262.75 2503.5,-262.75 2503.5,-250.75 2503.5,-250.75 2503.5,-244.75 2509.5,-238.75 2515.5,-238.75 2515.5,-238.75 2651.5,-238.75 2651.5,-238.75 2657.5,-238.75 2663.5,-244.75 2663.5,-250.75 2663.5,-250.75 2663.5,-262.75 2663.5,-262.75 2663.5,-268.75 2657.5,-274.75 2651.5,-274.75"/>
<text text-anchor="middle" x="2583.5" y="-259.95" font-family="Helvetica,sans-Serif" font-size="11.00">Agent / Tool / API Backend</text>
<text text-anchor="middle" x="2583.5" y="-247.95" font-family="Helvetica,sans-Serif" font-size="11.00">registered upstream URL</text>
</g>
<!-- sanitize&#45;&gt;backend -->
<g id="edge17" class="edge">
<title>sanitize&#45;&gt;backend</title>
<path fill="none" stroke="#64748b" d="M2221.37,-762.72C2277.06,-684.7 2497.34,-376.06 2563.57,-283.28"/>
<polygon fill="#64748b" stroke="#64748b" points="2566.53,-285.16 2569.49,-274.99 2560.83,-281.09 2566.53,-285.16"/>
<text text-anchor="middle" x="2389.5" y="-598.75" font-family="Helvetica,sans-Serif" font-size="10.00">authorized tool/API call</text>
</g>
<!-- model -->
<g id="node16" class="node">
<title>model</title>
<path fill="#c7d2fe" stroke="#475569" d="M2676,-834.75C2676,-834.75 2491,-834.75 2491,-834.75 2485,-834.75 2479,-828.75 2479,-822.75 2479,-822.75 2479,-810.75 2479,-810.75 2479,-804.75 2485,-798.75 2491,-798.75 2491,-798.75 2676,-798.75 2676,-798.75 2682,-798.75 2688,-804.75 2688,-810.75 2688,-810.75 2688,-822.75 2688,-822.75 2688,-828.75 2682,-834.75 2676,-834.75"/>
<text text-anchor="middle" x="2583.5" y="-819.95" font-family="Helvetica,sans-Serif" font-size="11.00">OpenAI&#45;Compatible Model Provider</text>
<text text-anchor="middle" x="2583.5" y="-807.95" font-family="Helvetica,sans-Serif" font-size="11.00">registered upstream URL</text>
</g>
<!-- sanitize&#45;&gt;model -->
<g id="edge18" class="edge">
<title>sanitize&#45;&gt;model</title>
<path fill="none" stroke="#64748b" d="M2276.66,-787.31C2330.15,-792.46 2405.79,-799.74 2468.46,-805.78"/>
<polygon fill="#64748b" stroke="#64748b" points="2468.51,-809.3 2478.8,-806.77 2469.18,-802.33 2468.51,-809.3"/>
<text text-anchor="middle" x="2389.5" y="-805.75" font-family="Helvetica,sans-Serif" font-size="10.00">authorized LLM call</text>
</g>
<!-- mcpdownstream -->
<g id="node17" class="node">
<title>mcpdownstream</title>
<path fill="#c7d2fe" stroke="#475569" d="M2648.5,-762.75C2648.5,-762.75 2518.5,-762.75 2518.5,-762.75 2512.5,-762.75 2506.5,-756.75 2506.5,-750.75 2506.5,-750.75 2506.5,-738.75 2506.5,-738.75 2506.5,-732.75 2512.5,-726.75 2518.5,-726.75 2518.5,-726.75 2648.5,-726.75 2648.5,-726.75 2654.5,-726.75 2660.5,-732.75 2660.5,-738.75 2660.5,-738.75 2660.5,-750.75 2660.5,-750.75 2660.5,-756.75 2654.5,-762.75 2648.5,-762.75"/>
<text text-anchor="middle" x="2583.5" y="-747.95" font-family="Helvetica,sans-Serif" font-size="11.00">Downstream MCP Server</text>
<text text-anchor="middle" x="2583.5" y="-735.95" font-family="Helvetica,sans-Serif" font-size="11.00">stdio command</text>
</g>
<!-- sanitize&#45;&gt;mcpdownstream -->
<g id="edge19" class="edge">
<title>sanitize&#45;&gt;mcpdownstream</title>
<path fill="none" stroke="#64748b" d="M2276.66,-774.19C2338.39,-768.25 2429.61,-759.47 2496.36,-753.05"/>
<polygon fill="#64748b" stroke="#64748b" points="2496.82,-756.52 2506.44,-752.08 2496.15,-749.55 2496.82,-756.52"/>
<text text-anchor="middle" x="2389.5" y="-770.75" font-family="Helvetica,sans-Serif" font-size="10.00">authorized MCP call</text>
</g>
<!-- backend&#45;&gt;runtime -->
<g id="edge35" class="edge">
<title>backend&#45;&gt;runtime</title>
<path fill="none" stroke="#64748b" d="M2546.17,-274.77C2519.09,-287.63 2480.91,-304.56 2446,-315.75 2113.05,-422.51 2014.16,-389.13 1677,-481.75 1602.87,-502.12 1572.21,-487.71 1513,-536.75 1460.11,-580.56 1428.66,-657.83 1414.85,-699.04"/>
<polygon fill="#64748b" stroke="#64748b" points="1411.48,-698.11 1411.72,-708.7 1418.14,-700.27 1411.48,-698.11"/>
<text text-anchor="middle" x="2000.5" y="-428.75" font-family="Helvetica,sans-Serif" font-size="10.00">tool calls + response</text>
</g>
<!-- crm -->
<g id="node23" class="node">
<title>crm</title>
<path fill="#f8fafc" stroke="#475569" d="M3168,-183.75C3168,-183.75 3131,-183.75 3131,-183.75 3125,-183.75 3119,-177.75 3119,-171.75 3119,-171.75 3119,-159.75 3119,-159.75 3119,-153.75 3125,-147.75 3131,-147.75 3131,-147.75 3168,-147.75 3168,-147.75 3174,-147.75 3180,-153.75 3180,-159.75 3180,-159.75 3180,-171.75 3180,-171.75 3180,-177.75 3174,-183.75 3168,-183.75"/>
<text text-anchor="middle" x="3149.5" y="-162.95" font-family="Helvetica,sans-Serif" font-size="11.00">CRM DB</text>
</g>
<!-- backend&#45;&gt;crm -->
<g id="edge20" class="edge">
<title>backend&#45;&gt;crm</title>
<path fill="none" stroke="#64748b" d="M2590.81,-238.67C2606.03,-197.96 2648.96,-99.15 2721,-53.75 2826.99,13.02 2885.23,13.6 3002,-31.75 3057.45,-53.29 3104.72,-106.69 3129.63,-139.2"/>
<polygon fill="#64748b" stroke="#64748b" points="3126.97,-141.48 3135.77,-147.38 3132.57,-137.28 3126.97,-141.48"/>
</g>
<!-- email -->
<g id="node24" class="node">
<title>email</title>
<path fill="#f8fafc" stroke="#475569" d="M3171,-255.75C3171,-255.75 3128,-255.75 3128,-255.75 3122,-255.75 3116,-249.75 3116,-243.75 3116,-243.75 3116,-231.75 3116,-231.75 3116,-225.75 3122,-219.75 3128,-219.75 3128,-219.75 3171,-219.75 3171,-219.75 3177,-219.75 3183,-225.75 3183,-231.75 3183,-231.75 3183,-243.75 3183,-243.75 3183,-249.75 3177,-255.75 3171,-255.75"/>
<text text-anchor="middle" x="3149.5" y="-234.95" font-family="Helvetica,sans-Serif" font-size="11.00">Email log</text>
</g>
<!-- backend&#45;&gt;email -->
<g id="edge21" class="edge">
<title>backend&#45;&gt;email</title>
<path fill="none" stroke="#64748b" d="M2598.58,-238.31C2621.47,-209.41 2669.43,-153.18 2721,-118.75 2780.86,-78.8 2800.37,-71.57 2871,-57.75 2928.14,-46.58 2952.91,-26.45 3002,-57.75 3061.52,-95.71 3018.83,-152.1 3069,-201.75 3079.4,-212.05 3093.26,-219.7 3106.5,-225.23"/>
<polygon fill="#64748b" stroke="#64748b" points="3105.38,-228.55 3115.97,-228.9 3107.91,-222.02 3105.38,-228.55"/>
</g>
<!-- tickets -->
<g id="node25" class="node">
<title>tickets</title>
<path fill="#f8fafc" stroke="#475569" d="M2963.5,-255.75C2963.5,-255.75 2917.5,-255.75 2917.5,-255.75 2911.5,-255.75 2905.5,-249.75 2905.5,-243.75 2905.5,-243.75 2905.5,-231.75 2905.5,-231.75 2905.5,-225.75 2911.5,-219.75 2917.5,-219.75 2917.5,-219.75 2963.5,-219.75 2963.5,-219.75 2969.5,-219.75 2975.5,-225.75 2975.5,-231.75 2975.5,-231.75 2975.5,-243.75 2975.5,-243.75 2975.5,-249.75 2969.5,-255.75 2963.5,-255.75"/>
<text text-anchor="middle" x="2940.5" y="-234.95" font-family="Helvetica,sans-Serif" font-size="11.00">Ticket log</text>
</g>
<!-- backend&#45;&gt;tickets -->
<g id="edge22" class="edge">
<title>backend&#45;&gt;tickets</title>
<path fill="none" stroke="#64748b" d="M2663.73,-252.51C2734.91,-248.7 2836.87,-243.25 2894.79,-240.15"/>
<polygon fill="#64748b" stroke="#64748b" points="2895.28,-243.63 2905.08,-239.6 2894.9,-236.64 2895.28,-243.63"/>
</g>
<!-- shell -->
<g id="node26" class="node">
<title>shell</title>
<path fill="#f8fafc" stroke="#475569" d="M2960,-183.75C2960,-183.75 2921,-183.75 2921,-183.75 2915,-183.75 2909,-177.75 2909,-171.75 2909,-171.75 2909,-159.75 2909,-159.75 2909,-153.75 2915,-147.75 2921,-147.75 2921,-147.75 2960,-147.75 2960,-147.75 2966,-147.75 2972,-153.75 2972,-159.75 2972,-159.75 2972,-171.75 2972,-171.75 2972,-177.75 2966,-183.75 2960,-183.75"/>
<text text-anchor="middle" x="2940.5" y="-162.95" font-family="Helvetica,sans-Serif" font-size="11.00">Shell log</text>
</g>
<!-- backend&#45;&gt;shell -->
<g id="edge23" class="edge">
<title>backend&#45;&gt;shell</title>
<path fill="none" stroke="#64748b" d="M2655.06,-238.67C2728.08,-219.95 2839.59,-191.36 2898.97,-176.14"/>
<polygon fill="#64748b" stroke="#64748b" points="2899.92,-179.51 2908.74,-173.64 2898.18,-172.73 2899.92,-179.51"/>
</g>
<!-- http -->
<g id="node27" class="node">
<title>http</title>
<path fill="#f8fafc" stroke="#475569" d="M2988,-111.75C2988,-111.75 2893,-111.75 2893,-111.75 2887,-111.75 2881,-105.75 2881,-99.75 2881,-99.75 2881,-87.75 2881,-87.75 2881,-81.75 2887,-75.75 2893,-75.75 2893,-75.75 2988,-75.75 2988,-75.75 2994,-75.75 3000,-81.75 3000,-87.75 3000,-87.75 3000,-99.75 3000,-99.75 3000,-105.75 2994,-111.75 2988,-111.75"/>
<text text-anchor="middle" x="2940.5" y="-90.95" font-family="Helvetica,sans-Serif" font-size="11.00">HTTP/Webhook log</text>
</g>
<!-- backend&#45;&gt;http -->
<g id="edge24" class="edge">
<title>backend&#45;&gt;http</title>
<path fill="none" stroke="#64748b" d="M2614.27,-238.71C2641.54,-222.54 2683.27,-198.68 2721,-180.75 2773.4,-155.86 2834.94,-131.8 2879.33,-115.32"/>
<polygon fill="#64748b" stroke="#64748b" points="2880.65,-118.56 2888.81,-111.82 2878.22,-112 2880.65,-118.56"/>
</g>
<!-- peer -->
<g id="node28" class="node">
<title>peer</title>
<path fill="#f8fafc" stroke="#475569" d="M3185,-399.75C3185,-399.75 3114,-399.75 3114,-399.75 3108,-399.75 3102,-393.75 3102,-387.75 3102,-387.75 3102,-375.75 3102,-375.75 3102,-369.75 3108,-363.75 3114,-363.75 3114,-363.75 3185,-363.75 3185,-363.75 3191,-363.75 3197,-369.75 3197,-375.75 3197,-375.75 3197,-387.75 3197,-387.75 3197,-393.75 3191,-399.75 3185,-399.75"/>
<text text-anchor="middle" x="3149.5" y="-378.95" font-family="Helvetica,sans-Serif" font-size="11.00">Peer&#45;agent log</text>
</g>
<!-- backend&#45;&gt;peer -->
<g id="edge25" class="edge">
<title>backend&#45;&gt;peer</title>
<path fill="none" stroke="#64748b" d="M2600.73,-275.12C2624.6,-301.01 2671.69,-348.07 2721,-374.75 2781.99,-407.76 2802.32,-408.1 2871,-417.75 2928.66,-425.85 2944.2,-424.75 3002,-417.75 3032.22,-414.1 3065.2,-406.34 3092.2,-398.96"/>
<polygon fill="#64748b" stroke="#64748b" points="3093.17,-402.32 3101.86,-396.26 3091.29,-395.58 3093.17,-402.32"/>
</g>
<!-- peeragent -->
<g id="node30" class="node">
<title>peeragent</title>
<path fill="#c7d2fe" stroke="#475569" d="M2980,-327.75C2980,-327.75 2901,-327.75 2901,-327.75 2895,-327.75 2889,-321.75 2889,-315.75 2889,-315.75 2889,-303.75 2889,-303.75 2889,-297.75 2895,-291.75 2901,-291.75 2901,-291.75 2980,-291.75 2980,-291.75 2986,-291.75 2992,-297.75 2992,-303.75 2992,-303.75 2992,-315.75 2992,-315.75 2992,-321.75 2986,-327.75 2980,-327.75"/>
<text text-anchor="middle" x="2940.5" y="-312.95" font-family="Helvetica,sans-Serif" font-size="11.00">Live peer agent</text>
<text text-anchor="middle" x="2940.5" y="-300.95" font-family="Helvetica,sans-Serif" font-size="11.00">/a2a/message</text>
</g>
<!-- backend&#45;&gt;peeragent -->
<g id="edge26" class="edge">
<title>backend&#45;&gt;peeragent</title>
<path fill="none" stroke="#64748b" d="M2663.73,-268.58C2728.73,-278.29 2819.41,-291.82 2878.77,-300.69"/>
<polygon fill="#64748b" stroke="#64748b" points="2878.34,-304.16 2888.75,-302.18 2879.37,-297.24 2878.34,-304.16"/>
<text text-anchor="middle" x="2783.5" y="-297.75" font-family="Helvetica,sans-Serif" font-size="10.00">optional live delegation</text>
</g>
<!-- agnoteam -->
<g id="node31" class="node">
<title>agnoteam</title>
<path fill="#c7d2fe" stroke="#475569" d="M2990,-399.75C2990,-399.75 2891,-399.75 2891,-399.75 2885,-399.75 2879,-393.75 2879,-387.75 2879,-387.75 2879,-375.75 2879,-375.75 2879,-369.75 2885,-363.75 2891,-363.75 2891,-363.75 2990,-363.75 2990,-363.75 2996,-363.75 3002,-369.75 3002,-375.75 3002,-375.75 3002,-387.75 3002,-387.75 3002,-393.75 2996,-399.75 2990,-399.75"/>
<text text-anchor="middle" x="2940.5" y="-384.95" font-family="Helvetica,sans-Serif" font-size="11.00">Agno Team target</text>
<text text-anchor="middle" x="2940.5" y="-372.95" font-family="Helvetica,sans-Serif" font-size="11.00">Team(mode=route)</text>
</g>
<!-- backend&#45;&gt;agnoteam -->
<g id="edge27" class="edge">
<title>backend&#45;&gt;agnoteam</title>
<path fill="none" stroke="#64748b" d="M2624.08,-274.87C2651.1,-286.91 2687.86,-302.67 2721,-314.75 2769.76,-332.53 2825.74,-349.64 2868.83,-362.11"/>
<polygon fill="#64748b" stroke="#64748b" points="2868.08,-365.54 2878.66,-364.94 2870.01,-358.81 2868.08,-365.54"/>
<text text-anchor="middle" x="2783.5" y="-357.75" font-family="Helvetica,sans-Serif" font-size="10.00">optional Agno team route</text>
</g>
<!-- memory -->
<g id="node18" class="node">
<title>memory</title>
<path fill="#c7d2fe" stroke="#475569" d="M1132.5,-715.75C1132.5,-715.75 963.5,-715.75 963.5,-715.75 957.5,-715.75 951.5,-709.75 951.5,-703.75 951.5,-703.75 951.5,-691.75 951.5,-691.75 951.5,-685.75 957.5,-679.75 963.5,-679.75 963.5,-679.75 1132.5,-679.75 1132.5,-679.75 1138.5,-679.75 1144.5,-685.75 1144.5,-691.75 1144.5,-691.75 1144.5,-703.75 1144.5,-703.75 1144.5,-709.75 1138.5,-715.75 1132.5,-715.75"/>
<text text-anchor="middle" x="1048" y="-700.95" font-family="Helvetica,sans-Serif" font-size="11.00">Persisted Memory Context</text>
<text text-anchor="middle" x="1048" y="-688.95" font-family="Helvetica,sans-Serif" font-size="11.00">AGENT_MEMORY_CONTEXT_URL</text>
</g>
<!-- memory&#45;&gt;runtime -->
<g id="edge11" class="edge">
<title>memory&#45;&gt;runtime</title>
<path fill="none" stroke="#64748b" d="M1144.74,-705.56C1199.7,-710.05 1268.07,-715.62 1320.87,-719.93"/>
<polygon fill="#64748b" stroke="#64748b" points="1320.62,-723.42 1330.87,-720.75 1321.19,-716.45 1320.62,-723.42"/>
<text text-anchor="middle" x="1242.5" y="-719.75" font-family="Helvetica,sans-Serif" font-size="10.00">load memory contexts</text>
</g>
<!-- response -->
<g id="node20" class="node">
<title>response</title>
<path fill="#dbeafe" stroke="#475569" d="M2256.5,-1040.75C2256.5,-1040.75 2158.5,-1040.75 2158.5,-1040.75 2152.5,-1040.75 2146.5,-1034.75 2146.5,-1028.75 2146.5,-1028.75 2146.5,-1016.75 2146.5,-1016.75 2146.5,-1010.75 2152.5,-1004.75 2158.5,-1004.75 2158.5,-1004.75 2256.5,-1004.75 2256.5,-1004.75 2262.5,-1004.75 2268.5,-1010.75 2268.5,-1016.75 2268.5,-1016.75 2268.5,-1028.75 2268.5,-1028.75 2268.5,-1034.75 2262.5,-1040.75 2256.5,-1040.75"/>
<text text-anchor="middle" x="2207.5" y="-1019.95" font-family="Helvetica,sans-Serif" font-size="11.00">Gateway Response</text>
</g>
<!-- presidio_out&#45;&gt;response -->
<g id="edge37" class="edge">
<title>presidio_out&#45;&gt;response</title>
<path fill="none" stroke="#64748b" d="M1841.75,-605.91C1856.71,-611.17 1872.38,-617.77 1886,-625.75 1986.48,-684.68 2009.03,-708.96 2082,-799.75 2133.39,-863.7 2175.53,-951.69 2194.94,-995.57"/>
<polygon fill="#64748b" stroke="#64748b" points="2191.74,-996.98 2198.95,-1004.74 2198.15,-994.18 2191.74,-996.98"/>
</g>
<!-- response&#45;&gt;user -->
<g id="edge38" class="edge">
<title>response&#45;&gt;user</title>
<path fill="none" stroke="#64748b" d="M2146.47,-1022.75C2064.31,-1022.75 1912.24,-1022.75 1782.5,-1022.75 351,-1022.75 351,-1022.75 351,-1022.75 249.22,-1022.75 142.62,-957.42 90.91,-920.85"/>
<polygon fill="#64748b" stroke="#64748b" points="92.66,-917.8 82.5,-914.81 88.58,-923.48 92.66,-917.8"/>
</g>
<!-- response&#45;&gt;dashboard -->
<g id="edge39" class="edge">
<title>response&#45;&gt;dashboard</title>
<path fill="none" stroke="#64748b" d="M2268.59,-1031.11C2336.78,-1040.59 2447.61,-1056 2517.7,-1065.74"/>
<polygon fill="#64748b" stroke="#64748b" points="2517.35,-1069.23 2527.73,-1067.14 2518.31,-1062.3 2517.35,-1069.23"/>
</g>
<!-- otel -->
<g id="node22" class="node">
<title>otel</title>
<path fill="#dcfce7" stroke="#475569" d="M2288,-543.75C2288,-543.75 2127,-543.75 2127,-543.75 2121,-543.75 2115,-537.75 2115,-531.75 2115,-531.75 2115,-519.75 2115,-519.75 2115,-513.75 2121,-507.75 2127,-507.75 2127,-507.75 2288,-507.75 2288,-507.75 2294,-507.75 2300,-513.75 2300,-519.75 2300,-519.75 2300,-531.75 2300,-531.75 2300,-537.75 2294,-543.75 2288,-543.75"/>
<text text-anchor="middle" x="2207.5" y="-528.95" font-family="Helvetica,sans-Serif" font-size="11.00">OTLP Collector / Grafana stack</text>
<text text-anchor="middle" x="2207.5" y="-516.95" font-family="Helvetica,sans-Serif" font-size="11.00">optional</text>
</g>
<!-- observability&#45;&gt;otel -->
<g id="edge43" class="edge">
<title>observability&#45;&gt;otel</title>
<path fill="none" stroke="#64748b" d="M1879.51,-519.58C1946.71,-520.85 2036,-522.54 2104.3,-523.83"/>
<polygon fill="#64748b" stroke="#64748b" points="2104.58,-527.33 2114.65,-524.02 2104.72,-520.33 2104.58,-527.33"/>
<text text-anchor="middle" x="2000.5" y="-525.75" font-family="Helvetica,sans-Serif" font-size="10.00">OTLP export / Prometheus scrape</text>
</g>
<!-- a2a -->
<g id="node29" class="node">
<title>a2a</title>
<path fill="#f8fafc" stroke="#475569" d="M3218,-327.75C3218,-327.75 3081,-327.75 3081,-327.75 3075,-327.75 3069,-321.75 3069,-315.75 3069,-315.75 3069,-303.75 3069,-303.75 3069,-297.75 3075,-291.75 3081,-291.75 3081,-291.75 3218,-291.75 3218,-291.75 3224,-291.75 3230,-297.75 3230,-303.75 3230,-303.75 3230,-315.75 3230,-315.75 3230,-321.75 3224,-327.75 3218,-327.75"/>
<text text-anchor="middle" x="3149.5" y="-306.95" font-family="Helvetica,sans-Serif" font-size="11.00">A2A inbound/outbound log</text>
</g>
<!-- peeragent&#45;&gt;crm -->
<g id="edge29" class="edge">
<title>peeragent&#45;&gt;crm</title>
<path fill="none" stroke="#64748b" d="M2978.38,-291.62C2986.7,-286.53 2995.1,-280.51 3002,-273.75 3021.82,-254.33 3014.92,-239.91 3035,-220.75 3056.03,-200.7 3085.76,-186.65 3109.52,-177.78"/>
<polygon fill="#64748b" stroke="#64748b" points="3110.72,-181.07 3118.96,-174.4 3108.36,-174.48 3110.72,-181.07"/>
</g>
<!-- peeragent&#45;&gt;email -->
<g id="edge30" class="edge">
<title>peeragent&#45;&gt;email</title>
<path fill="none" stroke="#64748b" d="M2973.58,-291.66C2991.26,-282.29 3013.86,-271.26 3035,-263.75 3057.86,-255.64 3084.23,-249.42 3105.79,-245.1"/>
<polygon fill="#64748b" stroke="#64748b" points="3106.49,-248.53 3115.64,-243.19 3105.16,-241.66 3106.49,-248.53"/>
</g>
<!-- peeragent&#45;&gt;a2a -->
<g id="edge28" class="edge">
<title>peeragent&#45;&gt;a2a</title>
<path fill="none" stroke="#64748b" d="M2992.14,-309.75C3012.26,-309.75 3036.03,-309.75 3058.88,-309.75"/>
<polygon fill="#64748b" stroke="#64748b" points="3058.94,-313.25 3068.94,-309.75 3058.94,-306.25 3058.94,-313.25"/>
</g>
<!-- agnoteam&#45;&gt;crm -->
<g id="edge33" class="edge">
<title>agnoteam&#45;&gt;crm</title>
<path fill="none" stroke="#64748b" d="M2979.93,-363.61C2987.91,-358.62 2995.77,-352.65 3002,-345.75 3049.32,-293.38 3018.83,-251.41 3069,-201.75 3080.11,-190.76 3095.18,-182.77 3109.21,-177.17"/>
<polygon fill="#64748b" stroke="#64748b" points="3110.54,-180.41 3118.7,-173.65 3108.11,-173.84 3110.54,-180.41"/>
</g>
<!-- agnoteam&#45;&gt;email -->
<g id="edge34" class="edge">
<title>agnoteam&#45;&gt;email</title>
<path fill="none" stroke="#64748b" d="M2975.91,-363.57C2984.75,-358.29 2994.01,-352.2 3002,-345.75 3036.01,-318.3 3033.51,-299.27 3069,-273.75 3080.37,-265.58 3093.9,-258.61 3106.54,-253.05"/>
<polygon fill="#64748b" stroke="#64748b" points="3108.12,-256.18 3115.98,-249.07 3105.41,-249.73 3108.12,-256.18"/>
</g>
<!-- agnoteam&#45;&gt;peer -->
<g id="edge31" class="edge">
<title>agnoteam&#45;&gt;peer</title>
<path fill="none" stroke="#64748b" d="M3002.21,-381.75C3030.45,-381.75 3063.86,-381.75 3091.61,-381.75"/>
<polygon fill="#64748b" stroke="#64748b" points="3091.95,-385.25 3101.95,-381.75 3091.95,-378.25 3091.95,-385.25"/>
</g>
<!-- agnoteam&#45;&gt;a2a -->
<g id="edge32" class="edge">
<title>agnoteam&#45;&gt;a2a</title>
<path fill="none" stroke="#64748b" d="M2993.47,-363.68C3021.89,-353.79 3057.27,-341.49 3087.05,-331.13"/>
<polygon fill="#64748b" stroke="#64748b" points="3088.22,-334.43 3096.51,-327.84 3085.92,-327.82 3088.22,-334.43"/>
</g>
<!-- fuzz -->
<g id="node32" class="node">
<title>fuzz</title>
<path fill="#fee2e2" stroke="#475569" d="M434,-351.75C434,-351.75 270,-351.75 270,-351.75 264,-351.75 258,-345.75 258,-339.75 258,-339.75 258,-327.75 258,-327.75 258,-321.75 264,-315.75 270,-315.75 270,-315.75 434,-315.75 434,-315.75 440,-315.75 446,-321.75 446,-327.75 446,-327.75 446,-339.75 446,-339.75 446,-345.75 440,-351.75 434,-351.75"/>
<text text-anchor="middle" x="352" y="-330.95" font-family="Helvetica,sans-Serif" font-size="11.00">attack_lab.py / agent_fuzzer.py</text>
</g>
<!-- fuzz&#45;&gt;gateway -->
<g id="edge44" class="edge">
<title>fuzz&#45;&gt;gateway</title>
<path fill="none" stroke="#64748b" d="M367.32,-351.95C422.47,-422.06 621.32,-674.83 686.3,-757.44"/>
<polygon fill="#64748b" stroke="#64748b" points="683.57,-759.63 692.51,-765.33 689.07,-755.31 683.57,-759.63"/>
<text text-anchor="middle" x="542.5" y="-640.75" font-family="Helvetica,sans-Serif" font-size="10.00">guarded attacks</text>
</g>
<!-- raw -->
<g id="node33" class="node">
<title>raw</title>
<path fill="#fecaca" stroke="#475569" d="M765.5,-279.75C765.5,-279.75 650.5,-279.75 650.5,-279.75 644.5,-279.75 638.5,-273.75 638.5,-267.75 638.5,-267.75 638.5,-255.75 638.5,-255.75 638.5,-249.75 644.5,-243.75 650.5,-243.75 650.5,-243.75 765.5,-243.75 765.5,-243.75 771.5,-243.75 777.5,-249.75 777.5,-255.75 777.5,-255.75 777.5,-267.75 777.5,-267.75 777.5,-273.75 771.5,-279.75 765.5,-279.75"/>
<text text-anchor="middle" x="708" y="-264.95" font-family="Helvetica,sans-Serif" font-size="11.00">Raw vulnerable target</text>
<text text-anchor="middle" x="708" y="-252.95" font-family="Helvetica,sans-Serif" font-size="11.00">bypass gateway</text>
</g>
<!-- fuzz&#45;&gt;raw -->
<g id="edge45" class="edge">
<title>fuzz&#45;&gt;raw</title>
<path fill="none" stroke="#64748b" d="M441.87,-315.68C499.23,-304.01 573.17,-288.97 628.39,-277.74"/>
<polygon fill="#64748b" stroke="#64748b" points="629.37,-281.11 638.47,-275.69 627.97,-274.26 629.37,-281.11"/>
<text text-anchor="middle" x="542.5" y="-308.75" font-family="Helvetica,sans-Serif" font-size="10.00">unguarded attacks</text>
</g>
<!-- cisco -->
<g id="node34" class="node">
<title>cisco</title>
<path fill="#fee2e2" stroke="#475569" d="M769,-351.75C769,-351.75 647,-351.75 647,-351.75 641,-351.75 635,-345.75 635,-339.75 635,-339.75 635,-327.75 635,-327.75 635,-321.75 641,-315.75 647,-315.75 647,-315.75 769,-315.75 769,-315.75 775,-315.75 781,-321.75 781,-327.75 781,-327.75 781,-339.75 781,-339.75 781,-345.75 775,-351.75 769,-351.75"/>
<text text-anchor="middle" x="708" y="-336.95" font-family="Helvetica,sans-Serif" font-size="11.00">Cisco A2A Scanner</text>
<text text-anchor="middle" x="708" y="-324.95" font-family="Helvetica,sans-Serif" font-size="11.00">card + endpoint checks</text>
</g>
<!-- fuzz&#45;&gt;cisco -->
<g id="edge46" class="edge">
<title>fuzz&#45;&gt;cisco</title>
<path fill="none" stroke="#64748b" d="M446.01,-333.75C501.43,-333.75 571.16,-333.75 624.6,-333.75"/>
<polygon fill="#64748b" stroke="#64748b" points="624.72,-337.25 634.72,-333.75 624.72,-330.25 624.72,-337.25"/>
<text text-anchor="middle" x="542.5" y="-336.75" font-family="Helvetica,sans-Serif" font-size="10.00">multi&#45;agent target scan</text>
</g>
<!-- raw&#45;&gt;backend -->
<g id="edge49" class="edge">
<title>raw&#45;&gt;backend</title>
<path fill="none" stroke="#64748b" d="M777.54,-246.24C845.54,-232.21 952.91,-213.75 1047,-213.75 1047,-213.75 1047,-213.75 2208.5,-213.75 2306.39,-213.75 2417.76,-228.47 2493.32,-240.69"/>
<polygon fill="#64748b" stroke="#64748b" points="2492.84,-244.16 2503.28,-242.32 2493.97,-237.25 2492.84,-244.16"/>
<text text-anchor="middle" x="1578.5" y="-216.75" font-family="Helvetica,sans-Serif" font-size="10.00">direct process()</text>
</g>
<!-- cisco&#45;&gt;backend -->
<g id="edge47" class="edge">
<title>cisco&#45;&gt;backend</title>
<path fill="none" stroke="#64748b" d="M781.14,-318.18C849.31,-304.84 954.61,-287.75 1047,-287.75 1047,-287.75 1047,-287.75 2208.5,-287.75 2306.24,-287.75 2417.86,-277.11 2493.53,-268.29"/>
<polygon fill="#64748b" stroke="#64748b" points="2493.97,-271.77 2503.5,-267.12 2493.15,-264.81 2493.97,-271.77"/>
<text text-anchor="middle" x="1578.5" y="-290.75" font-family="Helvetica,sans-Serif" font-size="10.00">agent card + endpoint</text>
</g>
<!-- cisco&#45;&gt;agnoteam -->
<g id="edge48" class="edge">
<title>cisco&#45;&gt;agnoteam</title>
<path fill="none" stroke="#64748b" d="M781.16,-348.99C849.34,-362.04 954.65,-378.75 1047,-378.75 1047,-378.75 1047,-378.75 1579.5,-378.75 1731.06,-378.75 1767.61,-403.63 1919,-410.75 2275.58,-427.52 2702.75,-399.95 2868.72,-387.44"/>
<polygon fill="#64748b" stroke="#64748b" points="2869.09,-390.92 2878.8,-386.67 2868.56,-383.94 2869.09,-390.92"/>
<text text-anchor="middle" x="1781.5" y="-410.75" font-family="Helvetica,sans-Serif" font-size="10.00">agent card + endpoint</text>
</g>
</g>
</svg>
