<?xml version="1.0" encoding="UTF-8" standalone="no"?>
<!DOCTYPE svg PUBLIC "-//W3C//DTD SVG 1.1//EN"
 "http://www.w3.org/Graphics/SVG/1.1/DTD/svg11.dtd">
<!-- Generated by graphviz version 2.43.0 (0)
 -->
<!-- Title: AgentVaultFlow Pages: 1 -->
<svg width="3293pt" height="1101pt"
 viewBox="0.00 0.00 3293.00 1100.75" xmlns="http://www.w3.org/2000/svg" xmlns:xlink="http://www.w3.org/1999/xlink">
<g id="graph0" class="graph" transform="scale(1 1) rotate(0) translate(4 1096.75)">
<title>AgentVaultFlow</title>
<polygon fill="white" stroke="transparent" points="-4,4 -4,-1096.75 3289,-1096.75 3289,4 -4,4"/>
<g id="clust1" class="cluster">
<title>cluster_tools</title>
<path fill="none" stroke="#cbd5e1" d="M2922,-67.75C2922,-67.75 3265,-67.75 3265,-67.75 3271,-67.75 3277,-73.75 3277,-79.75 3277,-79.75 3277,-418.75 3277,-418.75 3277,-424.75 3271,-430.75 3265,-430.75 3265,-430.75 2922,-430.75 2922,-430.75 2916,-430.75 2910,-424.75 2910,-418.75 2910,-418.75 2910,-79.75 2910,-79.75 2910,-73.75 2916,-67.75 2922,-67.75"/>
<text text-anchor="middle" x="3093.5" y="-415.55" font-family="Helvetica,sans-Serif" font-size="14.00">Target tools and multi&#45;agent audit surfaces</text>
</g>
<g id="clust2" class="cluster">
<title>cluster_testing</title>
<path fill="none" stroke="#cbd5e1" d="M262,-235.75C262,-235.75 787,-235.75 787,-235.75 793,-235.75 799,-241.75 799,-247.75 799,-247.75 799,-370.75 799,-370.75 799,-376.75 793,-382.75 787,-382.75 787,-382.75 262,-382.75 262,-382.75 256,-382.75 250,-376.75 250,-370.75 250,-370.75 250,-247.75 250,-247.75 250,-241.75 256,-235.75 262,-235.75"/>
<text text-anchor="middle" x="524.5" y="-367.55" font-family="Helvetica,sans-Serif" font-size="14.00">Adversarial testing path</text>
</g>
<!-- user -->
<g id="node1" class="node">
<title>user</title>
<path fill="#dbeafe" stroke="#475569" d="M104,-914.75C104,-914.75 12,-914.75 12,-914.75 6,-914.75 0,-908.75 0,-902.75 0,-902.75 0,-890.75 0,-890.75 0,-884.75 6,-878.75 12,-878.75 12,-878.75 104,-878.75 104,-878.75 110,-878.75 116,-884.75 116,-890.75 116,-890.75 116,-902.75 116,-902.75 116,-908.75 110,-914.75 104,-914.75"/>
<text text-anchor="middle" x="58" y="-893.95" font-family="Helvetica,sans-Serif" font-size="11.00">Agent / App Client</text>
</g>
<!-- openai -->
<g id="node4" class="node">
<title>openai</title>
<path fill="#dbeafe" stroke="#475569" d="M440,-801.75C440,-801.75 264,-801.75 264,-801.75 258,-801.75 252,-795.75 252,-789.75 252,-789.75 252,-777.75 252,-777.75 252,-771.75 258,-765.75 264,-765.75 264,-765.75 440,-765.75 440,-765.75 446,-765.75 452,-771.75 452,-777.75 452,-777.75 452,-789.75 452,-789.75 452,-795.75 446,-801.75 440,-801.75"/>
<text text-anchor="middle" x="352" y="-786.95" font-family="Helvetica,sans-Serif" font-size="11.00">OpenAI&#45;Compatible LLM Gateway</text>
<text text-anchor="middle" x="352" y="-774.95" font-family="Helvetica,sans-Serif" font-size="11.00">/v1/chat/completions</text>
</g>
<!-- user&#45;&gt;openai -->
<g id="edge2" class="edge">
<title>user&#45;&gt;openai</title>
<path fill="none" stroke="#64748b" d="M95.86,-878.55C112,-870.84 131.28,-861.98 149,-854.75 193.83,-836.47 245.34,-818.41 285.12,-805.08"/>
<polygon fill="#64748b" stroke="#64748b" points="286.33,-808.36 294.71,-801.88 284.12,-801.72 286.33,-808.36"/>
<text text-anchor="middle" x="184" y="-857.75" font-family="Helvetica,sans-Serif" font-size="10.00">LLM calls</text>
</g>
<!-- httpproxy -->
<g id="node5" class="node">
<title>httpproxy</title>
<path fill="#dbeafe" stroke="#475569" d="M411.5,-873.75C411.5,-873.75 292.5,-873.75 292.5,-873.75 286.5,-873.75 280.5,-867.75 280.5,-861.75 280.5,-861.75 280.5,-849.75 280.5,-849.75 280.5,-843.75 286.5,-837.75 292.5,-837.75 292.5,-837.75 411.5,-837.75 411.5,-837.75 417.5,-837.75 423.5,-843.75 423.5,-849.75 423.5,-849.75 423.5,-861.75 423.5,-861.75 423.5,-867.75 417.5,-873.75 411.5,-873.75"/>
<text text-anchor="middle" x="352" y="-858.95" font-family="Helvetica,sans-Serif" font-size="11.00">HTTP Tool/API Gateway</text>
<text text-anchor="middle" x="352" y="-846.95" font-family="Helvetica,sans-Serif" font-size="11.00">/proxy/{route_id}/...</text>
</g>
<!-- user&#45;&gt;httpproxy -->
<g id="edge3" class="edge">
<title>user&#45;&gt;httpproxy</title>
<path fill="none" stroke="#64748b" d="M116.34,-888.7C160.32,-882.53 221.56,-873.93 270.45,-867.06"/>
<polygon fill="#64748b" stroke="#64748b" points="270.96,-870.53 280.37,-865.67 269.98,-863.6 270.96,-870.53"/>
<text text-anchor="middle" x="184" y="-885.75" font-family="Helvetica,sans-Serif" font-size="10.00">tool/API calls</text>
</g>
<!-- mcp -->
<g id="node6" class="node">
<title>mcp</title>
<path fill="#dbeafe" stroke="#475569" d="M432.5,-945.75C432.5,-945.75 271.5,-945.75 271.5,-945.75 265.5,-945.75 259.5,-939.75 259.5,-933.75 259.5,-933.75 259.5,-921.75 259.5,-921.75 259.5,-915.75 265.5,-909.75 271.5,-909.75 271.5,-909.75 432.5,-909.75 432.5,-909.75 438.5,-909.75 444.5,-915.75 444.5,-921.75 444.5,-921.75 444.5,-933.75 444.5,-933.75 444.5,-939.75 438.5,-945.75 432.5,-945.75"/>
<text text-anchor="middle" x="352" y="-930.95" font-family="Helvetica,sans-Serif" font-size="11.00">MCP Gateway</text>
<text text-anchor="middle" x="352" y="-918.95" font-family="Helvetica,sans-Serif" font-size="11.00">mcp_gateway/proxy_server.py</text>
</g>
<!-- user&#45;&gt;mcp -->
<g id="edge4" class="edge">
<title>user&#45;&gt;mcp</title>
<path fill="none" stroke="#64748b" d="M116.34,-902.84C154.17,-906.86 204.78,-912.23 249.32,-916.96"/>
<polygon fill="#64748b" stroke="#64748b" points="249,-920.44 259.31,-918.02 249.74,-913.48 249,-920.44"/>
<text text-anchor="middle" x="184" y="-915.75" font-family="Helvetica,sans-Serif" font-size="10.00">MCP tool calls</text>
</g>
<!-- dashboard -->
<g id="node2" class="node">
<title>dashboard</title>
<path fill="#dbeafe" stroke="#475569" d="M2666,-1092.75C2666,-1092.75 2579,-1092.75 2579,-1092.75 2573,-1092.75 2567,-1086.75 2567,-1080.75 2567,-1080.75 2567,-1068.75 2567,-1068.75 2567,-1062.75 2573,-1056.75 2579,-1056.75 2579,-1056.75 2666,-1056.75 2666,-1056.75 2672,-1056.75 2678,-1062.75 2678,-1068.75 2678,-1068.75 2678,-1080.75 2678,-1080.75 2678,-1086.75 2672,-1092.75 2666,-1092.75"/>
<text text-anchor="middle" x="2622.5" y="-1077.95" font-family="Helvetica,sans-Serif" font-size="11.00">React Dashboard</text>
<text text-anchor="middle" x="2622.5" y="-1065.95" font-family="Helvetica,sans-Serif" font-size="11.00">/ui/dist</text>
</g>
<!-- gateway -->
<g id="node3" class="node">
<title>gateway</title>
<path fill="#bfdbfe" stroke="#475569" d="M791,-801.75C791,-801.75 645,-801.75 645,-801.75 639,-801.75 633,-795.75 633,-789.75 633,-789.75 633,-777.75 633,-777.75 633,-771.75 639,-765.75 645,-765.75 645,-765.75 791,-765.75 791,-765.75 797,-765.75 803,-771.75 803,-777.75 803,-777.75 803,-789.75 803,-789.75 803,-795.75 797,-801.75 791,-801.75"/>
<text text-anchor="middle" x="718" y="-786.95" font-family="Helvetica,sans-Serif" font-size="11.00">AgentVault HTTP Gateway</text>
<text text-anchor="middle" x="718" y="-774.95" font-family="Helvetica,sans-Serif" font-size="11.00">agentvault_gateway/app.py</text>
</g>
<!-- dashboard&#45;&gt;gateway -->
<g id="edge1" class="edge">
<title>dashboard&#45;&gt;gateway</title>
<path fill="none" stroke="#64748b" d="M2566.94,-1075.8C2479.47,-1076.83 2302.61,-1076.21 2154,-1058.75 1635.12,-997.81 1022.32,-856.93 802.58,-804.18"/>
<polygon fill="#64748b" stroke="#64748b" points="803.27,-800.75 792.72,-801.81 801.63,-807.55 803.27,-800.75"/>
<text text-anchor="middle" x="1617.5" y="-990.75" font-family="Helvetica,sans-Serif" font-size="10.00">/api/control&#45;plane</text>
</g>
<!-- bifrost -->
<g id="node7" class="node">
<title>bifrost</title>
<path fill="#bfdbfe" stroke="#475569" d="M1507,-744.75C1507,-744.75 1363,-744.75 1363,-744.75 1357,-744.75 1351,-738.75 1351,-732.75 1351,-732.75 1351,-720.75 1351,-720.75 1351,-714.75 1357,-708.75 1363,-708.75 1363,-708.75 1507,-708.75 1507,-708.75 1513,-708.75 1519,-714.75 1519,-720.75 1519,-720.75 1519,-732.75 1519,-732.75 1519,-738.75 1513,-744.75 1507,-744.75"/>
<text text-anchor="middle" x="1435" y="-729.95" font-family="Helvetica,sans-Serif" font-size="11.00">Bifrost Runtime Core</text>
<text text-anchor="middle" x="1435" y="-717.95" font-family="Helvetica,sans-Serif" font-size="11.00">bifrost_gateway/runtime.py</text>
</g>
<!-- gateway&#45;&gt;bifrost -->
<g id="edge8" class="edge">
<title>gateway&#45;&gt;bifrost</title>
<path fill="none" stroke="#64748b" d="M803.34,-777.34C919.3,-768.48 1134.51,-751.86 1318,-736.75 1325.42,-736.14 1333.11,-735.5 1340.84,-734.85"/>
<polygon fill="#64748b" stroke="#64748b" points="1341.33,-738.32 1351,-733.99 1340.74,-731.34 1341.33,-738.32"/>
<text text-anchor="middle" x="1068" y="-766.75" font-family="Helvetica,sans-Serif" font-size="10.00">adapt HTTP request</text>
</g>
<!-- control -->
<g id="node8" class="node">
<title>control</title>
<path fill="#e0e7ff" stroke="#475569" d="M1162,-643.75C1162,-643.75 974,-643.75 974,-643.75 968,-643.75 962,-637.75 962,-631.75 962,-631.75 962,-619.75 962,-619.75 962,-613.75 968,-607.75 974,-607.75 974,-607.75 1162,-607.75 1162,-607.75 1168,-607.75 1174,-613.75 1174,-619.75 1174,-619.75 1174,-631.75 1174,-631.75 1174,-637.75 1168,-643.75 1162,-643.75"/>
<text text-anchor="middle" x="1068" y="-628.95" font-family="Helvetica,sans-Serif" font-size="11.00">Lightweight Control Plane</text>
<text text-anchor="middle" x="1068" y="-616.95" font-family="Helvetica,sans-Serif" font-size="11.00">route registry + profiles + versions</text>
</g>
<!-- gateway&#45;&gt;control -->
<g id="edge9" class="edge">
<title>gateway&#45;&gt;control</title>
<path fill="none" stroke="#64748b" d="M751.36,-765.74C797.31,-740.57 884.53,-694.3 962,-661.75 974.18,-656.64 987.36,-651.68 1000.13,-647.16"/>
<polygon fill="#64748b" stroke="#64748b" points="1001.51,-650.39 1009.8,-643.8 999.21,-643.78 1001.51,-650.39"/>
<text text-anchor="middle" x="882.5" y="-720.75" font-family="Helvetica,sans-Serif" font-size="10.00">management API</text>
</g>
<!-- observability -->
<g id="node21" class="node">
<title>observability</title>
<path fill="#dcfce7" stroke="#475569" d="M1906.5,-535.75C1906.5,-535.75 1734.5,-535.75 1734.5,-535.75 1728.5,-535.75 1722.5,-529.75 1722.5,-523.75 1722.5,-523.75 1722.5,-511.75 1722.5,-511.75 1722.5,-505.75 1728.5,-499.75 1734.5,-499.75 1734.5,-499.75 1906.5,-499.75 1906.5,-499.75 1912.5,-499.75 1918.5,-505.75 1918.5,-511.75 1918.5,-511.75 1918.5,-523.75 1918.5,-523.75 1918.5,-529.75 1912.5,-535.75 1906.5,-535.75"/>
<text text-anchor="middle" x="1820.5" y="-520.95" font-family="Helvetica,sans-Serif" font-size="11.00">Observability</text>
<text text-anchor="middle" x="1820.5" y="-508.95" font-family="Helvetica,sans-Serif" font-size="11.00">Prometheus + OTEL + event log</text>
</g>
<!-- gateway&#45;&gt;observability -->
<g id="edge42" class="edge">
<title>gateway&#45;&gt;observability</title>
<path fill="none" stroke="#64748b" d="M733.3,-765.74C767.45,-724.4 858.66,-623.7 962,-589.75 1221.1,-504.64 1546.72,-504.3 1712.23,-511.11"/>
<polygon fill="#64748b" stroke="#64748b" points="1712.28,-514.62 1722.42,-511.55 1712.58,-507.63 1712.28,-514.62"/>
<text text-anchor="middle" x="1262.5" y="-535.75" font-family="Helvetica,sans-Serif" font-size="10.00">HTTP metrics, traces</text>
</g>
<!-- openai&#45;&gt;gateway -->
<g id="edge5" class="edge">
<title>openai&#45;&gt;gateway</title>
<path fill="none" stroke="#64748b" d="M452.46,-783.75C505.45,-783.75 570.28,-783.75 622.49,-783.75"/>
<polygon fill="#64748b" stroke="#64748b" points="622.76,-787.25 632.76,-783.75 622.76,-780.25 622.76,-787.25"/>
</g>
<!-- httpproxy&#45;&gt;gateway -->
<g id="edge6" class="edge">
<title>httpproxy&#45;&gt;gateway</title>
<path fill="none" stroke="#64748b" d="M423.75,-844.28C473.25,-835.98 540.84,-824.09 600,-811.75 611.15,-809.43 622.86,-806.82 634.38,-804.16"/>
<polygon fill="#64748b" stroke="#64748b" points="635.49,-807.5 644.44,-801.82 633.9,-800.68 635.49,-807.5"/>
</g>
<!-- mcp&#45;&gt;bifrost -->
<g id="edge7" class="edge">
<title>mcp&#45;&gt;bifrost</title>
<path fill="none" stroke="#64748b" d="M444.64,-918.35C617.47,-899.36 1002.57,-851.09 1318,-768.75 1338.74,-763.34 1361,-755.74 1380.41,-748.49"/>
<polygon fill="#64748b" stroke="#64748b" points="1381.88,-751.68 1389.99,-744.86 1379.4,-745.13 1381.88,-751.68"/>
<text text-anchor="middle" x="882.5" y="-866.75" font-family="Helvetica,sans-Serif" font-size="10.00">adapt MCP request</text>
</g>
<!-- ledger -->
<g id="node9" class="node">
<title>ledger</title>
<path fill="#e0e7ff" stroke="#475569" d="M1913,-823.75C1913,-823.75 1728,-823.75 1728,-823.75 1722,-823.75 1716,-817.75 1716,-811.75 1716,-811.75 1716,-799.75 1716,-799.75 1716,-793.75 1722,-787.75 1728,-787.75 1728,-787.75 1913,-787.75 1913,-787.75 1919,-787.75 1925,-793.75 1925,-799.75 1925,-799.75 1925,-811.75 1925,-811.75 1925,-817.75 1919,-823.75 1913,-823.75"/>
<text text-anchor="middle" x="1820.5" y="-808.95" font-family="Helvetica,sans-Serif" font-size="11.00">Decision Ledger</text>
<text text-anchor="middle" x="1820.5" y="-796.95" font-family="Helvetica,sans-Serif" font-size="11.00">hashes, verdicts, versions, latency</text>
</g>
<!-- bifrost&#45;&gt;ledger -->
<g id="edge41" class="edge">
<title>bifrost&#45;&gt;ledger</title>
<path fill="none" stroke="#64748b" d="M1519.01,-743.94C1530.1,-746.23 1541.33,-748.55 1552,-750.75 1608.16,-762.34 1670.95,-775.25 1721.59,-785.65"/>
<polygon fill="#64748b" stroke="#64748b" points="1721.04,-789.11 1731.54,-787.7 1722.45,-782.26 1721.04,-789.11"/>
<text text-anchor="middle" x="1617.5" y="-778.75" font-family="Helvetica,sans-Serif" font-size="10.00">final decision record</text>
</g>
<!-- lakera -->
<g id="node10" class="node">
<title>lakera</title>
<path fill="#fde68a" stroke="#475569" d="M1870.5,-751.75C1870.5,-751.75 1770.5,-751.75 1770.5,-751.75 1764.5,-751.75 1758.5,-745.75 1758.5,-739.75 1758.5,-739.75 1758.5,-727.75 1758.5,-727.75 1758.5,-721.75 1764.5,-715.75 1770.5,-715.75 1770.5,-715.75 1870.5,-715.75 1870.5,-715.75 1876.5,-715.75 1882.5,-721.75 1882.5,-727.75 1882.5,-727.75 1882.5,-739.75 1882.5,-739.75 1882.5,-745.75 1876.5,-751.75 1870.5,-751.75"/>
<text text-anchor="middle" x="1820.5" y="-736.95" font-family="Helvetica,sans-Serif" font-size="11.00">Lakera Guard</text>
<text text-anchor="middle" x="1820.5" y="-724.95" font-family="Helvetica,sans-Serif" font-size="11.00">prompt attack scan</text>
</g>
<!-- bifrost&#45;&gt;lakera -->
<g id="edge12" class="edge">
<title>bifrost&#45;&gt;lakera</title>
<path fill="none" stroke="#64748b" d="M1519.21,-728.27C1587.59,-729.52 1683.43,-731.27 1748.3,-732.45"/>
<polygon fill="#64748b" stroke="#64748b" points="1748.37,-735.96 1758.43,-732.64 1748.5,-728.96 1748.37,-735.96"/>
<text text-anchor="middle" x="1617.5" y="-733.75" font-family="Helvetica,sans-Serif" font-size="10.00">1. scan_prompt(text)</text>
</g>
<!-- nemo -->
<g id="node11" class="node">
<title>nemo</title>
<path fill="#fde68a" stroke="#475569" d="M1871,-679.75C1871,-679.75 1770,-679.75 1770,-679.75 1764,-679.75 1758,-673.75 1758,-667.75 1758,-667.75 1758,-655.75 1758,-655.75 1758,-649.75 1764,-643.75 1770,-643.75 1770,-643.75 1871,-643.75 1871,-643.75 1877,-643.75 1883,-649.75 1883,-655.75 1883,-655.75 1883,-667.75 1883,-667.75 1883,-673.75 1877,-679.75 1871,-679.75"/>
<text text-anchor="middle" x="1820.5" y="-664.95" font-family="Helvetica,sans-Serif" font-size="11.00">NeMo Guardrails</text>
<text text-anchor="middle" x="1820.5" y="-652.95" font-family="Helvetica,sans-Serif" font-size="11.00">semantic input rails</text>
</g>
<!-- bifrost&#45;&gt;nemo -->
<g id="edge13" class="edge">
<title>bifrost&#45;&gt;nemo</title>
<path fill="none" stroke="#64748b" d="M1519.21,-712.65C1587.38,-701.1 1682.84,-684.92 1747.7,-673.92"/>
<polygon fill="#64748b" stroke="#64748b" points="1748.56,-677.33 1757.84,-672.2 1747.39,-670.43 1748.56,-677.33"/>
<text text-anchor="middle" x="1617.5" y="-707.75" font-family="Helvetica,sans-Serif" font-size="10.00">2. scan_semantics(text)</text>
</g>
<!-- presidio_in -->
<g id="node12" class="node">
<title>presidio_in</title>
<path fill="#fde68a" stroke="#475569" d="M1868.5,-967.75C1868.5,-967.75 1772.5,-967.75 1772.5,-967.75 1766.5,-967.75 1760.5,-961.75 1760.5,-955.75 1760.5,-955.75 1760.5,-943.75 1760.5,-943.75 1760.5,-937.75 1766.5,-931.75 1772.5,-931.75 1772.5,-931.75 1868.5,-931.75 1868.5,-931.75 1874.5,-931.75 1880.5,-937.75 1880.5,-943.75 1880.5,-943.75 1880.5,-955.75 1880.5,-955.75 1880.5,-961.75 1874.5,-967.75 1868.5,-967.75"/>
<text text-anchor="middle" x="1820.5" y="-952.95" font-family="Helvetica,sans-Serif" font-size="11.00">Presidio Input</text>
<text text-anchor="middle" x="1820.5" y="-940.95" font-family="Helvetica,sans-Serif" font-size="11.00">PII detect + redact</text>
</g>
<!-- bifrost&#45;&gt;presidio_in -->
<g id="edge14" class="edge">
<title>bifrost&#45;&gt;presidio_in</title>
<path fill="none" stroke="#64748b" d="M1446.85,-744.81C1465.06,-773.63 1504.48,-829.98 1552,-861.75 1612.67,-902.32 1693.55,-925.5 1750.43,-937.78"/>
<polygon fill="#64748b" stroke="#64748b" points="1749.91,-941.24 1760.41,-939.87 1751.34,-934.39 1749.91,-941.24"/>
<text text-anchor="middle" x="1617.5" y="-920.75" font-family="Helvetica,sans-Serif" font-size="10.00">3. scan/redact input</text>
</g>
<!-- policy -->
<g id="node13" class="node">
<title>policy</title>
<path fill="#fde68a" stroke="#475569" d="M1898,-895.75C1898,-895.75 1743,-895.75 1743,-895.75 1737,-895.75 1731,-889.75 1731,-883.75 1731,-883.75 1731,-871.75 1731,-871.75 1731,-865.75 1737,-859.75 1743,-859.75 1743,-859.75 1898,-859.75 1898,-859.75 1904,-859.75 1910,-865.75 1910,-871.75 1910,-871.75 1910,-883.75 1910,-883.75 1910,-889.75 1904,-895.75 1898,-895.75"/>
<text text-anchor="middle" x="1820.5" y="-880.95" font-family="Helvetica,sans-Serif" font-size="11.00">OPA&#45;compatible Policy Engine</text>
<text text-anchor="middle" x="1820.5" y="-868.95" font-family="Helvetica,sans-Serif" font-size="11.00">security/policy_engine.py</text>
</g>
<!-- bifrost&#45;&gt;policy -->
<g id="edge15" class="edge">
<title>bifrost&#45;&gt;policy</title>
<path fill="none" stroke="#64748b" d="M1462.21,-744.82C1485.1,-759.99 1519.65,-781.42 1552,-795.75 1610.85,-821.82 1680.44,-842.87 1733.89,-857.12"/>
<polygon fill="#64748b" stroke="#64748b" points="1733.11,-860.53 1743.67,-859.7 1734.9,-853.76 1733.11,-860.53"/>
<text text-anchor="middle" x="1617.5" y="-844.75" font-family="Helvetica,sans-Serif" font-size="10.00">4. build signals + evaluate</text>
</g>
<!-- presidio_out -->
<g id="node19" class="node">
<title>presidio_out</title>
<path fill="#fde68a" stroke="#475569" d="M1868.5,-607.75C1868.5,-607.75 1772.5,-607.75 1772.5,-607.75 1766.5,-607.75 1760.5,-601.75 1760.5,-595.75 1760.5,-595.75 1760.5,-583.75 1760.5,-583.75 1760.5,-577.75 1766.5,-571.75 1772.5,-571.75 1772.5,-571.75 1868.5,-571.75 1868.5,-571.75 1874.5,-571.75 1880.5,-577.75 1880.5,-583.75 1880.5,-583.75 1880.5,-595.75 1880.5,-595.75 1880.5,-601.75 1874.5,-607.75 1868.5,-607.75"/>
<text text-anchor="middle" x="1820.5" y="-592.95" font-family="Helvetica,sans-Serif" font-size="11.00">Presidio Output</text>
<text text-anchor="middle" x="1820.5" y="-580.95" font-family="Helvetica,sans-Serif" font-size="11.00">PII detect + redact</text>
</g>
<!-- bifrost&#45;&gt;presidio_out -->
<g id="edge36" class="edge">
<title>bifrost&#45;&gt;presidio_out</title>
<path fill="none" stroke="#64748b" d="M1466.19,-708.65C1489.13,-695.45 1521.79,-677.84 1552,-665.75 1617.62,-639.51 1695.66,-618.43 1750.46,-605.19"/>
<polygon fill="#64748b" stroke="#64748b" points="1751.51,-608.54 1760.42,-602.81 1749.88,-601.73 1751.51,-608.54"/>
<text text-anchor="middle" x="1617.5" y="-668.75" font-family="Helvetica,sans-Serif" font-size="10.00">5. scan/redact output</text>
</g>
<!-- bifrost&#45;&gt;observability -->
<g id="edge40" class="edge">
<title>bifrost&#45;&gt;observability</title>
<path fill="none" stroke="#64748b" d="M1448.42,-708.4C1467.58,-681.43 1506.88,-631.24 1552,-602.75 1600.87,-571.9 1661.88,-551.39 1713.28,-538.26"/>
<polygon fill="#64748b" stroke="#64748b" points="1714.24,-541.63 1723.1,-535.81 1712.55,-534.84 1714.24,-541.63"/>
<text text-anchor="middle" x="1617.5" y="-605.75" font-family="Helvetica,sans-Serif" font-size="10.00">security events</text>
</g>
<!-- control&#45;&gt;bifrost -->
<g id="edge10" class="edge">
<title>control&#45;&gt;bifrost</title>
<path fill="none" stroke="#64748b" d="M1145.93,-643.77C1195.32,-655.7 1260.72,-672.15 1318,-688.75 1335.44,-693.81 1354.2,-699.74 1371.44,-705.39"/>
<polygon fill="#64748b" stroke="#64748b" points="1370.81,-708.86 1381.4,-708.68 1373,-702.22 1370.81,-708.86"/>
<text text-anchor="middle" x="1262.5" y="-691.75" font-family="Helvetica,sans-Serif" font-size="10.00">local config snapshot</text>
</g>
<!-- sanitize -->
<g id="node14" class="node">
<title>sanitize</title>
<path fill="#fde68a" stroke="#475569" d="M2303.5,-798.75C2303.5,-798.75 2189.5,-798.75 2189.5,-798.75 2183.5,-798.75 2177.5,-792.75 2177.5,-786.75 2177.5,-786.75 2177.5,-774.75 2177.5,-774.75 2177.5,-768.75 2183.5,-762.75 2189.5,-762.75 2189.5,-762.75 2303.5,-762.75 2303.5,-762.75 2309.5,-762.75 2315.5,-768.75 2315.5,-774.75 2315.5,-774.75 2315.5,-786.75 2315.5,-786.75 2315.5,-792.75 2309.5,-798.75 2303.5,-798.75"/>
<text text-anchor="middle" x="2246.5" y="-783.95" font-family="Helvetica,sans-Serif" font-size="11.00">Context Sanitization</text>
<text text-anchor="middle" x="2246.5" y="-771.95" font-family="Helvetica,sans-Serif" font-size="11.00">for backend execution</text>
</g>
<!-- policy&#45;&gt;sanitize -->
<g id="edge16" class="edge">
<title>policy&#45;&gt;sanitize</title>
<path fill="none" stroke="#64748b" d="M1900.26,-859.74C1976.47,-842.3 2091.3,-816.03 2167.32,-798.64"/>
<polygon fill="#64748b" stroke="#64748b" points="2168.35,-801.99 2177.31,-796.35 2166.78,-795.17 2168.35,-801.99"/>
<text text-anchor="middle" x="2039.5" y="-848.75" font-family="Helvetica,sans-Serif" font-size="10.00">allow path</text>
</g>
<!-- backend -->
<g id="node15" class="node">
<title>backend</title>
<path fill="#c7d2fe" stroke="#475569" d="M2690.5,-274.75C2690.5,-274.75 2554.5,-274.75 2554.5,-274.75 2548.5,-274.75 2542.5,-268.75 2542.5,-262.75 2542.5,-262.75 2542.5,-250.75 2542.5,-250.75 2542.5,-244.75 2548.5,-238.75 2554.5,-238.75 2554.5,-238.75 2690.5,-238.75 2690.5,-238.75 2696.5,-238.75 2702.5,-244.75 2702.5,-250.75 2702.5,-250.75 2702.5,-262.75 2702.5,-262.75 2702.5,-268.75 2696.5,-274.75 2690.5,-274.75"/>
<text text-anchor="middle" x="2622.5" y="-259.95" font-family="Helvetica,sans-Serif" font-size="11.00">Agent / Tool / API Backend</text>
<text text-anchor="middle" x="2622.5" y="-247.95" font-family="Helvetica,sans-Serif" font-size="11.00">registered upstream URL</text>
</g>
<!-- sanitize&#45;&gt;backend -->
<g id="edge17" class="edge">
<title>sanitize&#45;&gt;backend</title>
<path fill="none" stroke="#64748b" d="M2260.37,-762.72C2316.06,-684.7 2536.34,-376.06 2602.57,-283.28"/>
<polygon fill="#64748b" stroke="#64748b" points="2605.53,-285.16 2608.49,-274.99 2599.83,-281.09 2605.53,-285.16"/>
<text text-anchor="middle" x="2428.5" y="-598.75" font-family="Helvetica,sans-Serif" font-size="10.00">authorized tool/API call</text>
</g>
<!-- model -->
<g id="node16" class="node">
<title>model</title>
<path fill="#c7d2fe" stroke="#475569" d="M2715,-834.75C2715,-834.75 2530,-834.75 2530,-834.75 2524,-834.75 2518,-828.75 2518,-822.75 2518,-822.75 2518,-810.75 2518,-810.75 2518,-804.75 2524,-798.75 2530,-798.75 2530,-798.75 2715,-798.75 2715,-798.75 2721,-798.75 2727,-804.75 2727,-810.75 2727,-810.75 2727,-822.75 2727,-822.75 2727,-828.75 2721,-834.75 2715,-834.75"/>
<text text-anchor="middle" x="2622.5" y="-819.95" font-family="Helvetica,sans-Serif" font-size="11.00">OpenAI&#45;Compatible Model Provider</text>
<text text-anchor="middle" x="2622.5" y="-807.95" font-family="Helvetica,sans-Serif" font-size="11.00">registered upstream URL</text>
</g>
<!-- sanitize&#45;&gt;model -->
<g id="edge18" class="edge">
<title>sanitize&#45;&gt;model</title>
<path fill="none" stroke="#64748b" d="M2315.66,-787.31C2369.15,-792.46 2444.79,-799.74 2507.46,-805.78"/>
<polygon fill="#64748b" stroke="#64748b" points="2507.51,-809.3 2517.8,-806.77 2508.18,-802.33 2507.51,-809.3"/>
<text text-anchor="middle" x="2428.5" y="-805.75" font-family="Helvetica,sans-Serif" font-size="10.00">authorized LLM call</text>
</g>
<!-- mcpdownstream -->
<g id="node17" class="node">
<title>mcpdownstream</title>
<path fill="#c7d2fe" stroke="#475569" d="M2687.5,-762.75C2687.5,-762.75 2557.5,-762.75 2557.5,-762.75 2551.5,-762.75 2545.5,-756.75 2545.5,-750.75 2545.5,-750.75 2545.5,-738.75 2545.5,-738.75 2545.5,-732.75 2551.5,-726.75 2557.5,-726.75 2557.5,-726.75 2687.5,-726.75 2687.5,-726.75 2693.5,-726.75 2699.5,-732.75 2699.5,-738.75 2699.5,-738.75 2699.5,-750.75 2699.5,-750.75 2699.5,-756.75 2693.5,-762.75 2687.5,-762.75"/>
<text text-anchor="middle" x="2622.5" y="-747.95" font-family="Helvetica,sans-Serif" font-size="11.00">Downstream MCP Server</text>
<text text-anchor="middle" x="2622.5" y="-735.95" font-family="Helvetica,sans-Serif" font-size="11.00">stdio command</text>
</g>
<!-- sanitize&#45;&gt;mcpdownstream -->
<g id="edge19" class="edge">
<title>sanitize&#45;&gt;mcpdownstream</title>
<path fill="none" stroke="#64748b" d="M2315.66,-774.19C2377.39,-768.25 2468.61,-759.47 2535.36,-753.05"/>
<polygon fill="#64748b" stroke="#64748b" points="2535.82,-756.52 2545.44,-752.08 2535.15,-749.55 2535.82,-756.52"/>
<text text-anchor="middle" x="2428.5" y="-770.75" font-family="Helvetica,sans-Serif" font-size="10.00">authorized MCP call</text>
</g>
<!-- backend&#45;&gt;bifrost -->
<g id="edge35" class="edge">
<title>backend&#45;&gt;bifrost</title>
<path fill="none" stroke="#64748b" d="M2585.17,-274.77C2558.09,-287.63 2519.91,-304.56 2485,-315.75 2152.05,-422.51 2052.65,-387.29 1716,-481.75 1641.7,-502.6 1612.18,-490.46 1552,-538.75 1497.81,-582.23 1462.23,-658.31 1446.05,-699.09"/>
<polygon fill="#64748b" stroke="#64748b" points="1442.7,-698.06 1442.36,-708.65 1449.23,-700.58 1442.7,-698.06"/>
<text text-anchor="middle" x="2039.5" y="-427.75" font-family="Helvetica,sans-Serif" font-size="10.00">tool calls + response</text>
</g>
<!-- crm -->
<g id="node23" class="node">
<title>crm</title>
<path fill="#f8fafc" stroke="#475569" d="M3207,-183.75C3207,-183.75 3170,-183.75 3170,-183.75 3164,-183.75 3158,-177.75 3158,-171.75 3158,-171.75 3158,-159.75 3158,-159.75 3158,-153.75 3164,-147.75 3170,-147.75 3170,-147.75 3207,-147.75 3207,-147.75 3213,-147.75 3219,-153.75 3219,-159.75 3219,-159.75 3219,-171.75 3219,-171.75 3219,-177.75 3213,-183.75 3207,-183.75"/>
<text text-anchor="middle" x="3188.5" y="-162.95" font-family="Helvetica,sans-Serif" font-size="11.00">CRM DB</text>
</g>
<!-- backend&#45;&gt;crm -->
<g id="edge20" class="edge">
<title>backend&#45;&gt;crm</title>
<path fill="none" stroke="#64748b" d="M2629.81,-238.67C2645.03,-197.96 2687.96,-99.15 2760,-53.75 2865.99,13.02 2924.23,13.6 3041,-31.75 3096.45,-53.29 3143.72,-106.69 3168.63,-139.2"/>
<polygon fill="#64748b" stroke="#64748b" points="3165.97,-141.48 3174.77,-147.38 3171.57,-137.28 3165.97,-141.48"/>
</g>
<!-- email -->
<g id="node24" class="node">
<title>email</title>
<path fill="#f8fafc" stroke="#475569" d="M3210,-255.75C3210,-255.75 3167,-255.75 3167,-255.75 3161,-255.75 3155,-249.75 3155,-243.75 3155,-243.75 3155,-231.75 3155,-231.75 3155,-225.75 3161,-219.75 3167,-219.75 3167,-219.75 3210,-219.75 3210,-219.75 3216,-219.75 3222,-225.75 3222,-231.75 3222,-231.75 3222,-243.75 3222,-243.75 3222,-249.75 3216,-255.75 3210,-255.75"/>
<text text-anchor="middle" x="3188.5" y="-234.95" font-family="Helvetica,sans-Serif" font-size="11.00">Email log</text>
</g>
<!-- backend&#45;&gt;email -->
<g id="edge21" class="edge">
<title>backend&#45;&gt;email</title>
<path fill="none" stroke="#64748b" d="M2637.58,-238.31C2660.47,-209.41 2708.43,-153.18 2760,-118.75 2819.86,-78.8 2839.37,-71.57 2910,-57.75 2967.14,-46.58 2991.91,-26.45 3041,-57.75 3100.52,-95.71 3057.83,-152.1 3108,-201.75 3118.4,-212.05 3132.26,-219.7 3145.5,-225.23"/>
<polygon fill="#64748b" stroke="#64748b" points="3144.38,-228.55 3154.97,-228.9 3146.91,-222.02 3144.38,-228.55"/>
</g>
<!-- tickets -->
<g id="node25" class="node">
<title>tickets</title>
<path fill="#f8fafc" stroke="#475569" d="M3002.5,-255.75C3002.5,-255.75 2956.5,-255.75 2956.5,-255.75 2950.5,-255.75 2944.5,-249.75 2944.5,-243.75 2944.5,-243.75 2944.5,-231.75 2944.5,-231.75 2944.5,-225.75 2950.5,-219.75 2956.5,-219.75 2956.5,-219.75 3002.5,-219.75 3002.5,-219.75 3008.5,-219.75 3014.5,-225.75 3014.5,-231.75 3014.5,-231.75 3014.5,-243.75 3014.5,-243.75 3014.5,-249.75 3008.5,-255.75 3002.5,-255.75"/>
<text text-anchor="middle" x="2979.5" y="-234.95" font-family="Helvetica,sans-Serif" font-size="11.00">Ticket log</text>
</g>
<!-- backend&#45;&gt;tickets -->
<g id="edge22" class="edge">
<title>backend&#45;&gt;tickets</title>
<path fill="none" stroke="#64748b" d="M2702.73,-252.51C2773.91,-248.7 2875.87,-243.25 2933.79,-240.15"/>
<polygon fill="#64748b" stroke="#64748b" points="2934.28,-243.63 2944.08,-239.6 2933.9,-236.64 2934.28,-243.63"/>
</g>
<!-- shell -->
<g id="node26" class="node">
<title>shell</title>
<path fill="#f8fafc" stroke="#475569" d="M2999,-183.75C2999,-183.75 2960,-183.75 2960,-183.75 2954,-183.75 2948,-177.75 2948,-171.75 2948,-171.75 2948,-159.75 2948,-159.75 2948,-153.75 2954,-147.75 2960,-147.75 2960,-147.75 2999,-147.75 2999,-147.75 3005,-147.75 3011,-153.75 3011,-159.75 3011,-159.75 3011,-171.75 3011,-171.75 3011,-177.75 3005,-183.75 2999,-183.75"/>
<text text-anchor="middle" x="2979.5" y="-162.95" font-family="Helvetica,sans-Serif" font-size="11.00">Shell log</text>
</g>
<!-- backend&#45;&gt;shell -->
<g id="edge23" class="edge">
<title>backend&#45;&gt;shell</title>
<path fill="none" stroke="#64748b" d="M2694.06,-238.67C2767.08,-219.95 2878.59,-191.36 2937.97,-176.14"/>
<polygon fill="#64748b" stroke="#64748b" points="2938.92,-179.51 2947.74,-173.64 2937.18,-172.73 2938.92,-179.51"/>
</g>
<!-- http -->
<g id="node27" class="node">
<title>http</title>
<path fill="#f8fafc" stroke="#475569" d="M3027,-111.75C3027,-111.75 2932,-111.75 2932,-111.75 2926,-111.75 2920,-105.75 2920,-99.75 2920,-99.75 2920,-87.75 2920,-87.75 2920,-81.75 2926,-75.75 2932,-75.75 2932,-75.75 3027,-75.75 3027,-75.75 3033,-75.75 3039,-81.75 3039,-87.75 3039,-87.75 3039,-99.75 3039,-99.75 3039,-105.75 3033,-111.75 3027,-111.75"/>
<text text-anchor="middle" x="2979.5" y="-90.95" font-family="Helvetica,sans-Serif" font-size="11.00">HTTP/Webhook log</text>
</g>
<!-- backend&#45;&gt;http -->
<g id="edge24" class="edge">
<title>backend&#45;&gt;http</title>
<path fill="none" stroke="#64748b" d="M2653.27,-238.71C2680.54,-222.54 2722.27,-198.68 2760,-180.75 2812.4,-155.86 2873.94,-131.8 2918.33,-115.32"/>
<polygon fill="#64748b" stroke="#64748b" points="2919.65,-118.56 2927.81,-111.82 2917.22,-112 2919.65,-118.56"/>
</g>
<!-- peer -->
<g id="node28" class="node">
<title>peer</title>
<path fill="#f8fafc" stroke="#475569" d="M3224,-399.75C3224,-399.75 3153,-399.75 3153,-399.75 3147,-399.75 3141,-393.75 3141,-387.75 3141,-387.75 3141,-375.75 3141,-375.75 3141,-369.75 3147,-363.75 3153,-363.75 3153,-363.75 3224,-363.75 3224,-363.75 3230,-363.75 3236,-369.75 3236,-375.75 3236,-375.75 3236,-387.75 3236,-387.75 3236,-393.75 3230,-399.75 3224,-399.75"/>
<text text-anchor="middle" x="3188.5" y="-378.95" font-family="Helvetica,sans-Serif" font-size="11.00">Peer&#45;agent log</text>
</g>
<!-- backend&#45;&gt;peer -->
<g id="edge25" class="edge">
<title>backend&#45;&gt;peer</title>
<path fill="none" stroke="#64748b" d="M2639.73,-275.12C2663.6,-301.01 2710.69,-348.07 2760,-374.75 2820.99,-407.76 2841.32,-408.1 2910,-417.75 2967.66,-425.85 2983.2,-424.75 3041,-417.75 3071.22,-414.1 3104.2,-406.34 3131.2,-398.96"/>
<polygon fill="#64748b" stroke="#64748b" points="3132.17,-402.32 3140.86,-396.26 3130.29,-395.58 3132.17,-402.32"/>
</g>
<!-- peeragent -->
<g id="node30" class="node">
<title>peeragent</title>
<path fill="#c7d2fe" stroke="#475569" d="M3019,-327.75C3019,-327.75 2940,-327.75 2940,-327.75 2934,-327.75 2928,-321.75 2928,-315.75 2928,-315.75 2928,-303.75 2928,-303.75 2928,-297.75 2934,-291.75 2940,-291.75 2940,-291.75 3019,-291.75 3019,-291.75 3025,-291.75 3031,-297.75 3031,-303.75 3031,-303.75 3031,-315.75 3031,-315.75 3031,-321.75 3025,-327.75 3019,-327.75"/>
<text text-anchor="middle" x="2979.5" y="-312.95" font-family="Helvetica,sans-Serif" font-size="11.00">Live peer agent</text>
<text text-anchor="middle" x="2979.5" y="-300.95" font-family="Helvetica,sans-Serif" font-size="11.00">/a2a/message</text>
</g>
<!-- backend&#45;&gt;peeragent -->
<g id="edge26" class="edge">
<title>backend&#45;&gt;peeragent</title>
<path fill="none" stroke="#64748b" d="M2702.73,-268.58C2767.73,-278.29 2858.41,-291.82 2917.77,-300.69"/>
<polygon fill="#64748b" stroke="#64748b" points="2917.34,-304.16 2927.75,-302.18 2918.37,-297.24 2917.34,-304.16"/>
<text text-anchor="middle" x="2822.5" y="-297.75" font-family="Helvetica,sans-Serif" font-size="10.00">optional live delegation</text>
</g>
<!-- agnoteam -->
<g id="node31" class="node">
<title>agnoteam</title>
<path fill="#c7d2fe" stroke="#475569" d="M3029,-399.75C3029,-399.75 2930,-399.75 2930,-399.75 2924,-399.75 2918,-393.75 2918,-387.75 2918,-387.75 2918,-375.75 2918,-375.75 2918,-369.75 2924,-363.75 2930,-363.75 2930,-363.75 3029,-363.75 3029,-363.75 3035,-363.75 3041,-369.75 3041,-375.75 3041,-375.75 3041,-387.75 3041,-387.75 3041,-393.75 3035,-399.75 3029,-399.75"/>
<text text-anchor="middle" x="2979.5" y="-384.95" font-family="Helvetica,sans-Serif" font-size="11.00">Agno Team target</text>
<text text-anchor="middle" x="2979.5" y="-372.95" font-family="Helvetica,sans-Serif" font-size="11.00">Team(mode=route)</text>
</g>
<!-- backend&#45;&gt;agnoteam -->
<g id="edge27" class="edge">
<title>backend&#45;&gt;agnoteam</title>
<path fill="none" stroke="#64748b" d="M2663.08,-274.87C2690.1,-286.91 2726.86,-302.67 2760,-314.75 2808.76,-332.53 2864.74,-349.64 2907.83,-362.11"/>
<polygon fill="#64748b" stroke="#64748b" points="2907.08,-365.54 2917.66,-364.94 2909.01,-358.81 2907.08,-365.54"/>
<text text-anchor="middle" x="2822.5" y="-357.75" font-family="Helvetica,sans-Serif" font-size="10.00">optional Agno team route</text>
</g>
<!-- memory -->
<g id="node18" class="node">
<title>memory</title>
<path fill="#c7d2fe" stroke="#475569" d="M1152.5,-715.75C1152.5,-715.75 983.5,-715.75 983.5,-715.75 977.5,-715.75 971.5,-709.75 971.5,-703.75 971.5,-703.75 971.5,-691.75 971.5,-691.75 971.5,-685.75 977.5,-679.75 983.5,-679.75 983.5,-679.75 1152.5,-679.75 1152.5,-679.75 1158.5,-679.75 1164.5,-685.75 1164.5,-691.75 1164.5,-691.75 1164.5,-703.75 1164.5,-703.75 1164.5,-709.75 1158.5,-715.75 1152.5,-715.75"/>
<text text-anchor="middle" x="1068" y="-700.95" font-family="Helvetica,sans-Serif" font-size="11.00">Persisted Memory Context</text>
<text text-anchor="middle" x="1068" y="-688.95" font-family="Helvetica,sans-Serif" font-size="11.00">AGENT_MEMORY_CONTEXT_URL</text>
</g>
<!-- memory&#45;&gt;bifrost -->
<g id="edge11" class="edge">
<title>memory&#45;&gt;bifrost</title>
<path fill="none" stroke="#64748b" d="M1164.9,-705.37C1219.17,-709.68 1286.74,-715.05 1340.6,-719.33"/>
<polygon fill="#64748b" stroke="#64748b" points="1340.58,-722.84 1350.83,-720.15 1341.14,-715.86 1340.58,-722.84"/>
<text text-anchor="middle" x="1262.5" y="-719.75" font-family="Helvetica,sans-Serif" font-size="10.00">load memory contexts</text>
</g>
<!-- response -->
<g id="node20" class="node">
<title>response</title>
<path fill="#dbeafe" stroke="#475569" d="M2295.5,-1040.75C2295.5,-1040.75 2197.5,-1040.75 2197.5,-1040.75 2191.5,-1040.75 2185.5,-1034.75 2185.5,-1028.75 2185.5,-1028.75 2185.5,-1016.75 2185.5,-1016.75 2185.5,-1010.75 2191.5,-1004.75 2197.5,-1004.75 2197.5,-1004.75 2295.5,-1004.75 2295.5,-1004.75 2301.5,-1004.75 2307.5,-1010.75 2307.5,-1016.75 2307.5,-1016.75 2307.5,-1028.75 2307.5,-1028.75 2307.5,-1034.75 2301.5,-1040.75 2295.5,-1040.75"/>
<text text-anchor="middle" x="2246.5" y="-1019.95" font-family="Helvetica,sans-Serif" font-size="11.00">Gateway Response</text>
</g>
<!-- presidio_out&#45;&gt;response -->
<g id="edge37" class="edge">
<title>presidio_out&#45;&gt;response</title>
<path fill="none" stroke="#64748b" d="M1880.75,-605.91C1895.71,-611.17 1911.38,-617.77 1925,-625.75 2025.48,-684.68 2048.03,-708.96 2121,-799.75 2172.39,-863.7 2214.53,-951.69 2233.94,-995.57"/>
<polygon fill="#64748b" stroke="#64748b" points="2230.74,-996.98 2237.95,-1004.74 2237.15,-994.18 2230.74,-996.98"/>
</g>
<!-- response&#45;&gt;user -->
<g id="edge38" class="edge">
<title>response&#45;&gt;user</title>
<path fill="none" stroke="#64748b" d="M2185.47,-1022.75C2103.31,-1022.75 1951.24,-1022.75 1821.5,-1022.75 351,-1022.75 351,-1022.75 351,-1022.75 249.22,-1022.75 142.62,-957.42 90.91,-920.85"/>
<polygon fill="#64748b" stroke="#64748b" points="92.66,-917.8 82.5,-914.81 88.58,-923.48 92.66,-917.8"/>
</g>
<!-- response&#45;&gt;dashboard -->
<g id="edge39" class="edge">
<title>response&#45;&gt;dashboard</title>
<path fill="none" stroke="#64748b" d="M2307.59,-1031.11C2375.78,-1040.59 2486.61,-1056 2556.7,-1065.74"/>
<polygon fill="#64748b" stroke="#64748b" points="2556.35,-1069.23 2566.73,-1067.14 2557.31,-1062.3 2556.35,-1069.23"/>
</g>
<!-- otel -->
<g id="node22" class="node">
<title>otel</title>
<path fill="#dcfce7" stroke="#475569" d="M2327,-543.75C2327,-543.75 2166,-543.75 2166,-543.75 2160,-543.75 2154,-537.75 2154,-531.75 2154,-531.75 2154,-519.75 2154,-519.75 2154,-513.75 2160,-507.75 2166,-507.75 2166,-507.75 2327,-507.75 2327,-507.75 2333,-507.75 2339,-513.75 2339,-519.75 2339,-519.75 2339,-531.75 2339,-531.75 2339,-537.75 2333,-543.75 2327,-543.75"/>
<text text-anchor="middle" x="2246.5" y="-528.95" font-family="Helvetica,sans-Serif" font-size="11.00">OTLP Collector / Grafana stack</text>
<text text-anchor="middle" x="2246.5" y="-516.95" font-family="Helvetica,sans-Serif" font-size="11.00">optional</text>
</g>
<!-- observability&#45;&gt;otel -->
<g id="edge43" class="edge">
<title>observability&#45;&gt;otel</title>
<path fill="none" stroke="#64748b" d="M1918.51,-519.58C1985.71,-520.85 2075,-522.54 2143.3,-523.83"/>
<polygon fill="#64748b" stroke="#64748b" points="2143.58,-527.33 2153.65,-524.02 2143.72,-520.33 2143.58,-527.33"/>
<text text-anchor="middle" x="2039.5" y="-525.75" font-family="Helvetica,sans-Serif" font-size="10.00">OTLP export / Prometheus scrape</text>
</g>
<!-- a2a -->
<g id="node29" class="node">
<title>a2a</title>
<path fill="#f8fafc" stroke="#475569" d="M3257,-327.75C3257,-327.75 3120,-327.75 3120,-327.75 3114,-327.75 3108,-321.75 3108,-315.75 3108,-315.75 3108,-303.75 3108,-303.75 3108,-297.75 3114,-291.75 3120,-291.75 3120,-291.75 3257,-291.75 3257,-291.75 3263,-291.75 3269,-297.75 3269,-303.75 3269,-303.75 3269,-315.75 3269,-315.75 3269,-321.75 3263,-327.75 3257,-327.75"/>
<text text-anchor="middle" x="3188.5" y="-306.95" font-family="Helvetica,sans-Serif" font-size="11.00">A2A inbound/outbound log</text>
</g>
<!-- peeragent&#45;&gt;crm -->
<g id="edge29" class="edge">
<title>peeragent&#45;&gt;crm</title>
<path fill="none" stroke="#64748b" d="M3017.38,-291.62C3025.7,-286.53 3034.1,-280.51 3041,-273.75 3060.82,-254.33 3053.92,-239.91 3074,-220.75 3095.03,-200.7 3124.76,-186.65 3148.52,-177.78"/>
<polygon fill="#64748b" stroke="#64748b" points="3149.72,-181.07 3157.96,-174.4 3147.36,-174.48 3149.72,-181.07"/>
</g>
<!-- peeragent&#45;&gt;email -->
<g id="edge30" class="edge">
<title>peeragent&#45;&gt;email</title>
<path fill="none" stroke="#64748b" d="M3012.58,-291.66C3030.26,-282.29 3052.86,-271.26 3074,-263.75 3096.86,-255.64 3123.23,-249.42 3144.79,-245.1"/>
<polygon fill="#64748b" stroke="#64748b" points="3145.49,-248.53 3154.64,-243.19 3144.16,-241.66 3145.49,-248.53"/>
</g>
<!-- peeragent&#45;&gt;a2a -->
<g id="edge28" class="edge">
<title>peeragent&#45;&gt;a2a</title>
<path fill="none" stroke="#64748b" d="M3031.14,-309.75C3051.26,-309.75 3075.03,-309.75 3097.88,-309.75"/>
<polygon fill="#64748b" stroke="#64748b" points="3097.94,-313.25 3107.94,-309.75 3097.94,-306.25 3097.94,-313.25"/>
</g>
<!-- agnoteam&#45;&gt;crm -->
<g id="edge33" class="edge">
<title>agnoteam&#45;&gt;crm</title>
<path fill="none" stroke="#64748b" d="M3018.93,-363.61C3026.91,-358.62 3034.77,-352.65 3041,-345.75 3088.32,-293.38 3057.83,-251.41 3108,-201.75 3119.11,-190.76 3134.18,-182.77 3148.21,-177.17"/>
<polygon fill="#64748b" stroke="#64748b" points="3149.54,-180.41 3157.7,-173.65 3147.11,-173.84 3149.54,-180.41"/>
</g>
<!-- agnoteam&#45;&gt;email -->
<g id="edge34" class="edge">
<title>agnoteam&#45;&gt;email</title>
<path fill="none" stroke="#64748b" d="M3014.91,-363.57C3023.75,-358.29 3033.01,-352.2 3041,-345.75 3075.01,-318.3 3072.51,-299.27 3108,-273.75 3119.37,-265.58 3132.9,-258.61 3145.54,-253.05"/>
<polygon fill="#64748b" stroke="#64748b" points="3147.12,-256.18 3154.98,-249.07 3144.41,-249.73 3147.12,-256.18"/>
</g>
<!-- agnoteam&#45;&gt;peer -->
<g id="edge31" class="edge">
<title>agnoteam&#45;&gt;peer</title>
<path fill="none" stroke="#64748b" d="M3041.21,-381.75C3069.45,-381.75 3102.86,-381.75 3130.61,-381.75"/>
<polygon fill="#64748b" stroke="#64748b" points="3130.95,-385.25 3140.95,-381.75 3130.95,-378.25 3130.95,-385.25"/>
</g>
<!-- agnoteam&#45;&gt;a2a -->
<g id="edge32" class="edge">
<title>agnoteam&#45;&gt;a2a</title>
<path fill="none" stroke="#64748b" d="M3032.47,-363.68C3060.89,-353.79 3096.27,-341.49 3126.05,-331.13"/>
<polygon fill="#64748b" stroke="#64748b" points="3127.22,-334.43 3135.51,-327.84 3124.92,-327.82 3127.22,-334.43"/>
</g>
<!-- fuzz -->
<g id="node32" class="node">
<title>fuzz</title>
<path fill="#fee2e2" stroke="#475569" d="M434,-351.75C434,-351.75 270,-351.75 270,-351.75 264,-351.75 258,-345.75 258,-339.75 258,-339.75 258,-327.75 258,-327.75 258,-321.75 264,-315.75 270,-315.75 270,-315.75 434,-315.75 434,-315.75 440,-315.75 446,-321.75 446,-327.75 446,-327.75 446,-339.75 446,-339.75 446,-345.75 440,-351.75 434,-351.75"/>
<text text-anchor="middle" x="352" y="-330.95" font-family="Helvetica,sans-Serif" font-size="11.00">attack_lab.py / agent_fuzzer.py</text>
</g>
<!-- fuzz&#45;&gt;gateway -->
<g id="edge44" class="edge">
<title>fuzz&#45;&gt;gateway</title>
<path fill="none" stroke="#64748b" d="M367.72,-351.95C424.43,-422.06 628.9,-674.83 695.71,-757.44"/>
<polygon fill="#64748b" stroke="#64748b" points="693.09,-759.76 702.1,-765.33 698.53,-755.35 693.09,-759.76"/>
<text text-anchor="middle" x="542.5" y="-640.75" font-family="Helvetica,sans-Serif" font-size="10.00">guarded attacks</text>
</g>
<!-- raw -->
<g id="node33" class="node">
<title>raw</title>
<path fill="#fecaca" stroke="#475569" d="M775.5,-279.75C775.5,-279.75 660.5,-279.75 660.5,-279.75 654.5,-279.75 648.5,-273.75 648.5,-267.75 648.5,-267.75 648.5,-255.75 648.5,-255.75 648.5,-249.75 654.5,-243.75 660.5,-243.75 660.5,-243.75 775.5,-243.75 775.5,-243.75 781.5,-243.75 787.5,-249.75 787.5,-255.75 787.5,-255.75 787.5,-267.75 787.5,-267.75 787.5,-273.75 781.5,-279.75 775.5,-279.75"/>
<text text-anchor="middle" x="718" y="-264.95" font-family="Helvetica,sans-Serif" font-size="11.00">Raw vulnerable target</text>
<text text-anchor="middle" x="718" y="-252.95" font-family="Helvetica,sans-Serif" font-size="11.00">bypass gateway</text>
</g>
<!-- fuzz&#45;&gt;raw -->
<g id="edge45" class="edge">
<title>fuzz&#45;&gt;raw</title>
<path fill="none" stroke="#64748b" d="M444.38,-315.68C504.08,-303.87 581.24,-288.61 638.23,-277.33"/>
<polygon fill="#64748b" stroke="#64748b" points="639.14,-280.72 648.27,-275.35 637.78,-273.86 639.14,-280.72"/>
<text text-anchor="middle" x="542.5" y="-308.75" font-family="Helvetica,sans-Serif" font-size="10.00">unguarded attacks</text>
</g>
<!-- cisco -->
<g id="node34" class="node">
<title>cisco</title>
<path fill="#fee2e2" stroke="#475569" d="M779,-351.75C779,-351.75 657,-351.75 657,-351.75 651,-351.75 645,-345.75 645,-339.75 645,-339.75 645,-327.75 645,-327.75 645,-321.75 651,-315.75 657,-315.75 657,-315.75 779,-315.75 779,-315.75 785,-315.75 791,-321.75 791,-327.75 791,-327.75 791,-339.75 791,-339.75 791,-345.75 785,-351.75 779,-351.75"/>
<text text-anchor="middle" x="718" y="-336.95" font-family="Helvetica,sans-Serif" font-size="11.00">Cisco A2A Scanner</text>
<text text-anchor="middle" x="718" y="-324.95" font-family="Helvetica,sans-Serif" font-size="11.00">card + endpoint checks</text>
</g>
<!-- fuzz&#45;&gt;cisco -->
<g id="edge46" class="edge">
<title>fuzz&#45;&gt;cisco</title>
<path fill="none" stroke="#64748b" d="M446.27,-333.75C504.47,-333.75 578.7,-333.75 634.7,-333.75"/>
<polygon fill="#64748b" stroke="#64748b" points="634.94,-337.25 644.94,-333.75 634.94,-330.25 634.94,-337.25"/>
<text text-anchor="middle" x="542.5" y="-336.75" font-family="Helvetica,sans-Serif" font-size="10.00">multi&#45;agent target scan</text>
</g>
<!-- raw&#45;&gt;backend -->
<g id="edge49" class="edge">
<title>raw&#45;&gt;backend</title>
<path fill="none" stroke="#64748b" d="M787.61,-246.63C857.53,-232.56 969.27,-213.75 1067,-213.75 1067,-213.75 1067,-213.75 2247.5,-213.75 2345.39,-213.75 2456.76,-228.47 2532.32,-240.69"/>
<polygon fill="#64748b" stroke="#64748b" points="2531.84,-244.16 2542.28,-242.32 2532.97,-237.25 2531.84,-244.16"/>
<text text-anchor="middle" x="1617.5" y="-216.75" font-family="Helvetica,sans-Serif" font-size="10.00">direct process()</text>
</g>
<!-- cisco&#45;&gt;backend -->
<g id="edge47" class="edge">
<title>cisco&#45;&gt;backend</title>
<path fill="none" stroke="#64748b" d="M791.28,-318.56C861.41,-305.17 971.02,-287.75 1067,-287.75 1067,-287.75 1067,-287.75 2247.5,-287.75 2345.24,-287.75 2456.86,-277.11 2532.53,-268.29"/>
<polygon fill="#64748b" stroke="#64748b" points="2532.97,-271.77 2542.5,-267.12 2532.15,-264.81 2532.97,-271.77"/>
<text text-anchor="middle" x="1617.5" y="-290.75" font-family="Helvetica,sans-Serif" font-size="10.00">agent card + endpoint</text>
</g>
<!-- cisco&#45;&gt;agnoteam -->
<g id="edge48" class="edge">
<title>cisco&#45;&gt;agnoteam</title>
<path fill="none" stroke="#64748b" d="M791.3,-348.61C861.44,-361.72 971.05,-378.75 1067,-378.75 1067,-378.75 1067,-378.75 1618.5,-378.75 1770.06,-378.75 1806.61,-403.63 1958,-410.75 2314.58,-427.52 2741.75,-399.95 2907.72,-387.44"/>
<polygon fill="#64748b" stroke="#64748b" points="2908.09,-390.92 2917.8,-386.67 2907.56,-383.94 2908.09,-390.92"/>
<text text-anchor="middle" x="1820.5" y="-410.75" font-family="Helvetica,sans-Serif" font-size="10.00">agent card + endpoint</text>
</g>
</g>
</svg>
